<svg width="99" height="82" viewBox="0 0 99 82" xmlns="http://www.w3.org/2000/svg"><title>Group</title><g><path d="M44.943 6.814c1.311 6.911 2.619 13.823 3.932 20.735.276.121.594.038.887.062 15.361-.007 29.723.001 45.084-.006 2.194-.17 4.21 1.8 4.152 3.985-.37 8.341.243 16.679-.132 25.021-.024.328.004.666-.089.986-1.145-.018-2.289.006-3.432-.012-.438-.352-.747-.842-1.166-1.217a19.565 19.565 0 0 0-10.447-5.184c-2.962-.459-5.983.18-8.743 1.26-2.806 1.137-5.483 2.773-7.438 5.119-1.979.064-3.967.008-5.951.027-4.251-.004-8.501.002-12.75-.004-.006-3.877-.865-7.76-2.566-11.248-2.121-4.444-5.555-8.243-9.738-10.833-4.686-2.918-10.32-4.273-15.818-3.79-5.754.467-11.316 2.941-15.527 6.889-.844.733-1.541 1.611-2.316 2.41.045-5.679.006-11.357.018-17.036-.007-7.833.013-15.668-.01-23.502.166-.022.332-.034.496-.035C14.666.448 25.944.439 37.221.446a8.037 8.037 0 0 1 6.209 3.088 7.968 7.968 0 0 1 1.513 3.28zm-9.396-.362c-8.083-.009-16.168.003-24.255-.006a44.5 44.5 0 0 0-.394.092c-.017 7.026.005 14.054-.013 21.08 10.105.056 20.216.018 30.321.019-1.178-6.543-2.41-13.08-3.616-19.62-.1-.909-1.045-1.591-2.043-1.565z" /><path d="M37.443 41.929c4.172 3.672 6.898 8.944 7.445 14.477.639 5.848-1.125 11.916-4.844 16.479-3.129 3.908-7.6 6.723-12.486 7.824-5.486 1.27-11.445.406-16.312-2.438-4.199-2.416-7.578-6.227-9.463-10.686C-.008 63.423-.44 58.716.441 54.28c1.061-5.369 4.195-10.275 8.58-13.542 4.15-3.146 9.426-4.725 14.623-4.451 5.063.239 10.022 2.258 13.799 5.642zm-22.968 4.829c-3.881 2.561-6.381 7.092-6.404 11.75a14.296 14.296 0 0 0 1.873 7.406 14.503 14.503 0 0 0 6.244 5.854c4.285 2.111 9.611 1.891 13.701-.576 2.375-1.416 4.34-3.52 5.559-6.004 1.443-2.871 1.842-6.234 1.195-9.377-.938-4.705-4.406-8.797-8.889-10.502-1.447-.574-2.992-.879-4.543-.969-3.068-.147-6.188.693-8.736 2.418zM93.566 61.904c1.342 2.479 1.829 5.396 1.435 8.182-.593 4.488-3.668 8.527-7.812 10.336-2.597 1.158-5.564 1.43-8.336.824a13.37 13.37 0 0 1-7.408-4.545 13.338 13.338 0 0 1-2.898-6.502c-.432-2.848.07-5.834 1.454-8.365a13.403 13.403 0 0 1 6.679-6.01c2.193-.916 4.634-1.182 6.982-.863 4.158.557 7.958 3.227 9.904 6.943zm-16.044.26a7.369 7.369 0 0 0-3.063 5.064c-.072 1.01-.078 2.047.229 3.023.587 2.08 2.154 3.857 4.143 4.707 2.008.867 4.407.797 6.344-.227a7.357 7.357 0 0 0 3.418-3.752c.866-2.102.69-4.609-.489-6.557-1.021-1.717-2.757-3.002-4.714-3.42a7.398 7.398 0 0 0-5.868 1.162z"/><path d="M80.435 32l-1.116 1.097a10.085 10.085 0 0 1 0 14.422l1.116 1.097c4.66-4.551 4.66-12.037 0-16.616zm-15.823 1.097L63.495 32a11.654 11.654 0 0 0 0 16.644l1.117-1.097a10.118 10.118 0 0 1 0-14.45zm3.376 3.345a5.427 5.427 0 0 0 0 7.76l1.117-1.097c-1.563-1.536-1.563-4.03 0-5.539l-1.117-1.124zm-1.116-1.124l-1.116-1.097c-3.433 3.373-3.433 8.856 0 12.202l1.116-1.097a6.98 6.98 0 0 1 0-10.008zm11.302-1.097l-1.116 1.097a6.996 6.996 0 0 1 0 9.98l1.116 1.097c3.405-3.345 3.405-8.801 0-12.174zm-2.26 2.22l-1.116 1.098c1.562 1.535 1.562 4.03 0 5.538l1.116 1.097c2.177-2.111 2.177-5.593 0-7.732zm-3.963 1.728c-1.06 0-1.925.85-1.925 1.892 0 1.042.865 1.892 1.925 1.892s1.926-.85 1.926-1.892c0-1.042-.865-1.892-1.926-1.892z" fill="#FFF"/></g></svg>