<svg xmlns="http://www.w3.org/2000/svg" width="24" height="24" viewBox="0 0 24 24"><path d="M3.5 14.002h-3a.5.5 0 0 0-.5.5v8c0 .275.224.5.5.492h3a.49.49 0 0 0 .5-.492v-8a.5.5 0 0 0-.5-.5zM23.854 18.146c-1.175-1.173-2.187-1.498-3.512-1.12l-3.008.997c.026.158.041.317.041.479 0 .64-.208 1.241-.585 1.693-.438.527-1.058.807-1.79.807H9.5a.5.5 0 0 1-.5-.5c0-.277.224-.5.5-.508H15c.432.008.775-.142 1.021-.439.225-.27.354-.652.354-1.053 0-.559-.29-1.5-1.375-1.5h-3a.494.494 0 0 1-.354-.149c-.558-.557-2.077-1.852-4.146-1.852h-2a.5.5 0 0 0-.5.5v5.5c0 .215.138.405.342.473 1.584.527 2.831.98 3.833 1.346 2.004.727 3.13 1.122 4.141 1.122 1.212 0 2.257-.567 4.453-1.808 1.368-.772 3.241-1.83 5.955-3.186a.506.506 0 0 0 .27-.369.506.506 0 0 0-.14-.433zM8.655 11.252c.79 0 1.476-.383 2.049-1.133 1.355 2.493 1.812 4.484 1.818 4.518.091.421.444.766.977.788.414 0 .79-.261.936-.648.032-.084.477-1.229 1.319-2.446.562.637 1.188.801 1.687.801.794 0 1.662-.436 2.381-1.195 1.201-1.264 1.891-4.684.955-6.719a.496.496 0 0 0-.756-.191c-.876.66-1.686.87-2.543 1.092-.738.191-1.503.389-2.257.892-.869.579-1.368 1.378-1.37 2.187-.001.402.123.945.622 1.506-.288.374-.544.748-.764 1.104a23.286 23.286 0 0 0-1.521-3.163c.741-.509 1.199-1.112 1.359-1.806.231-.996-.155-2.095-1.148-3.262-.928-1.095-2.17-1.47-3.485-1.864-1.151-.347-2.341-.704-3.39-1.591a.486.486 0 0 0-.418-.109.487.487 0 0 0-.344.255c-1.378 2.605-.73 7.351.778 9.128.718.846 1.841 1.856 3.115 1.856zM6.884 3.715c.192-.193.462-.221.772.057a21.29 21.29 0 0 1 4.106 5.137.018.018 0 0 0 .005-.004c.961 1.668 1.404 2.863 1.843 4.066 1.027-1.801 2.294-3.559 4.166-4.493a.506.506 0 0 1 .646.192c.198.34.028.482-.198.701-2.192 1.096-3.824 3.963-4.255 5.228-.16.421-.771.447-.935-.012-.354-1-.549-2.303-2.017-4.932l.003-.004c-.936-1.676-2.265-3.549-4.119-5.217a.512.512 0 0 1-.017-.719z"/><g><path fill="none" d="M0 0h24v24H0z"/></g></svg>