<svg xmlns="http://www.w3.org/2000/svg" width="24" height="24" viewBox="0 0 24 24"><path d="M20.916 4.223l-2-3A.501.501 0 0 0 18.5 1h-13a.501.501 0 0 0-.416.223l-2 3a.71.71 0 0 0-.076.284c0 .016-.007.03-.005.046l2 19A.499.499 0 0 0 5.5 24h13a.499.499 0 0 0 .497-.447l2-19a.797.797 0 0 0-.081-.33zM10.547 17H7.04a.5.5 0 0 1-.439-.738l1.451-2.672-.482.102a.5.5 0 0 1-.208-.979l1.542-.328a.506.506 0 0 1 .586.364c.001.006.006.011.007.017l.335 1.51a.5.5 0 1 1-.977.216l-.045-.203L7.881 16h2.666a.5.5 0 0 1 0 1zm1.285-6.798a.507.507 0 0 1 .56-.433l.691.089-1.094-1.856-1.525 2.595a.502.502 0 0 1-.863-.507l1.956-3.327c.18-.306.683-.306.862 0l1.478 2.51.174-.535a.499.499 0 1 1 .951.308l-.516 1.594a.512.512 0 0 1-.539.342l-1.703-.219a.502.502 0 0 1-.432-.561zM16.984 17h-2.771l.324.317a.5.5 0 0 1-.7.714l-1.199-1.175a.5.5 0 0 1 .001-.714l1.198-1.174a.5.5 0 1 1 .699.715l-.322.317h1.939l-1.45-2.737a.5.5 0 0 1 .884-.468l1.839 3.471a.5.5 0 0 1-.442.734zM4.434 4l1.333-2h12.465l1.333 2H4.434z"/><path fill="none" d="M0 0h24v24H0z"/></svg>