<svg xmlns="http://www.w3.org/2000/svg" width="24" height="24" viewBox="0 0 24 24"><path d="M6.813 9.787a.5.5 0 0 0-.705.065l-2.525 3.023a8.01 8.01 0 0 1 1.081-5.24c1.177-1.975 3.102-3.403 5.28-3.918a7.995 7.995 0 0 1 7.836 2.486.5.5 0 1 0 .749-.663 8.998 8.998 0 0 0-8.815-2.797c-2.44.577-4.594 2.173-5.909 4.378a9.059 9.059 0 0 0-1.293 4.838L.915 9.58a.5.5 0 1 0-.83.556l2.787 4.15a.502.502 0 0 0 .799.044l3.205-3.838a.502.502 0 0 0-.063-.705zM23.488 13.881l-2.786-4.15a.5.5 0 0 0-.389-.221c-.186-.014-.395.137-.479.26l-3.137 3.756a.501.501 0 0 0 .768.642l2.405-2.881c.086 3.619-2.555 7.129-6.244 8a7.964 7.964 0 0 1-7.465-2.092.498.498 0 0 0-.707.005.501.501 0 0 0 .005.707 8.967 8.967 0 0 0 8.397 2.355c4.039-.955 6.893-4.553 7.021-8.476l1.78 2.652a.499.499 0 0 0 .694.138.501.501 0 0 0 .137-.695z"/><path d="M12.206 6.088c-.183-.292-.666-.292-.849 0-.34.547-3.326 5.383-3.326 7.266 0 1.996 1.613 3.5 3.75 3.5 2.138 0 3.75-1.504 3.75-3.5 0-1.883-2.985-6.719-3.325-7.266zm-.62 9.412c-1.189 0-2.086-.846-2.086-1.965a.5.5 0 0 1 1 0c0 .664.563.965 1.086.965a.5.5 0 0 1 0 1z"/><g><path fill="none" d="M0 0h24v24H0z"/></g></svg>