<svg xmlns="http://www.w3.org/2000/svg" width="24" height="24" viewBox="0 0 24 24"><path d="M16 18.783l-4-2.4V21.2l4 2.573zM11 16.383l-4 2.4v4.99l4-2.573zM12 14.586l5-3.204V7.783l-5 3zM11 10.783l-5-3v3.599l5 3.204zM6.5 17.917l4.052-2.432-4.987-3.194-4.075 2.621zM6 18.783l-5-3v4.501c0 .17.087.329.23.421L6 23.773v-4.99zM17 18.783v4.99l4.771-3.068a.503.503 0 0 0 .229-.421v-4.501l-5 3zM17.435 12.291l-4.987 3.194 4.052 2.432 5.01-3.005zM11.5 9.917l5-3-4.743-2.846a.5.5 0 0 0-.514 0L6.5 6.917l5 3z"/><g><path fill="none" d="M0 0h24v24H0z"/></g></svg>