<svg xmlns="http://www.w3.org/2000/svg" width="24" height="24" viewBox="0 0 24 24"><path d="M21.285 19.412a2.988 2.988 0 0 0 1.215-2.397c0-1.654-1.346-3-3-3s-3 1.346-3 3c0 .976.475 1.835 1.199 2.384a4.53 4.53 0 0 0-1.949 1.65 4.513 4.513 0 0 0-1.952-1.647A2.99 2.99 0 0 0 15 17.015c0-1.654-1.346-3-3-3s-3 1.346-3 3c0 .978.477 1.839 1.203 2.387a4.535 4.535 0 0 0-1.952 1.649 4.53 4.53 0 0 0-1.95-1.652A2.99 2.99 0 0 0 7.5 17.015c0-1.654-1.346-3-3-3s-3 1.346-3 3c0 .983.482 1.85 1.215 2.397C1.15 20.132 0 21.732 0 23.5a.5.5 0 0 0 .5.5h23a.5.5 0 0 0 .5-.5c0-1.768-1.15-3.368-2.715-4.088zM10.763 11c.336.676.748 1.352 1.239 2.026.492-.674.904-1.351 1.24-2.026h-2.479zM14.327 6c-.019-.856-.176-1.19-.465-2h-3.719c-.289.81-.445 1.144-.464 2h4.648zM5.017 6h3.679c.017-.852.148-1.188.4-2H5.615c-.346.765-.553 1.106-.598 2zM13.436 3A9.63 9.63 0 0 0 12.003.945 9.666 9.666 0 0 0 10.57 3h2.866zM9.71 7c.08.823.285 2.159.608 3h3.371c.323-.841.528-2.177.608-3H9.71zM8.726 7H5.032c.078.892.32 2.232.689 3H9.27c-.288-.838-.473-2.174-.544-3zM11.538 13.953a.495.495 0 0 1-.217-.158A14.572 14.572 0 0 1 9.662 11H6.305c1.182 1.69 3.064 2.829 5.21 2.976l.023-.023zM14.344 11a14.558 14.558 0 0 1-1.659 2.793.481.481 0 0 1-.239.163l.02.019a7.006 7.006 0 0 0 5.259-2.976h-3.381zM9.477 3A10.33 10.33 0 0 1 11.354.167a.5.5 0 0 1 .191-.124l-.021-.022C9.252.166 7.329 1.299 6.173 3h3.304zM12.459.043a.482.482 0 0 1 .193.124A10.33 10.33 0 0 1 14.529 3h3.215A6.993 6.993 0 0 0 12.477.024l-.018.019zM14.91 4c.251.812.383 1.148.4 2h3.665c-.061-.89-.288-1.232-.653-2H14.91zM18.974 7H15.28c-.072.826-.257 2.162-.545 3h3.571c.369-.768.601-2.11.668-3z"/><g><path fill="none" d="M0 0h24v24H0z"/></g></svg>