<svg width="48" height="37" viewBox="0 0 48 37" xmlns="http://www.w3.org/2000/svg"><title>Group 2</title><g><g><circle stroke="#000" stroke-width="2" cx="36.6" cy="30.6" r="5"/><circle stroke="#000" stroke-width="2" cx="12.6" cy="30.6" r="5"/><path d="M21.3 4.2V3.1c0-1.3-1-2.5-2.3-2.7-1.5-.2-2.8 1-2.8 2.5v1.3c0 .2-.1.3-.3.3h-3.2c-.2 0-.4.1-.6.2L.7 16.6c-.1.1-.2.3-.2.5v13.3c0 .2.1.3.3.3h3.4c.2 0 .3-.1.3-.3 0-2 .8-4.1 2.4-5.6 1.6-1.6 3.6-2.4 5.8-2.4 2.2 0 4.3.9 5.8 2.4 1.6 1.6 2.4 3.6 2.4 5.6 0 .2.1.3.3.3h7c.2 0 .3-.1.3-.3 0-2 .8-4.1 2.4-5.6 1.6-1.6 3.6-2.4 5.8-2.4 2.2 0 4.3.9 5.8 2.4 1.6 1.6 2.4 3.6 2.4 5.6 0 .2.1.3.3.3h2.1c.2 0 .3-.1.3-.3V4.8c0-.2-.1-.3-.3-.3H21.6c-.1 0-.3-.1-.3-.3zM13.6 18H3c-.2 0-.4-.3-.2-.5L13.4 6.9c.2-.2.5-.1.5.2v10.6c0 .2-.1.3-.3.3z"/></g><path d="M36.51 8.077l-.791.775a7.102 7.102 0 0 1 0 10.18l.79.774c3.301-3.212 3.301-8.496 0-11.729zM25.3 8.852l-.79-.775a8.206 8.206 0 0 0 0 11.749l.79-.774a7.125 7.125 0 0 1 0-10.2zm2.392 2.36a3.821 3.821 0 0 0 0 5.478l.79-.774a2.716 2.716 0 0 1 0-3.91l-.79-.793zm-.79-.793l-.791-.774a5.997 5.997 0 0 0 0 8.613l.79-.774a4.915 4.915 0 0 1 0-7.065zm8.005-.774l-.79.774a4.926 4.926 0 0 1 0 7.046l.79.774a6.008 6.008 0 0 0 0-8.594zm-1.601 1.568l-.79.774a2.716 2.716 0 0 1 0 3.91l.79.774a3.798 3.798 0 0 0 0-5.458zm-2.807 1.22c-.751 0-1.364.6-1.364 1.335s.613 1.335 1.364 1.335c.751 0 1.364-.6 1.364-1.335 0-.736-.613-1.336-1.364-1.336z" fill="#FFF"/></g></svg>