<svg width="19" height="24" viewBox="0 0 19 24" xmlns="http://www.w3.org/2000/svg"><title>Combined Shape</title><path d="M9.5 0C4.084 0 0 4.298 0 10c0 7.173 8.831 13.634 9.207 13.905a.495.495 0 0 0 .586 0C10.168 23.634 19 17.173 19 10c0-5.702-4.084-10-9.5-10zM6.026 9.342A.499.499 0 0 1 6.5 9h6c.215 0 .406.137.474.342L13.86 12H5.14l.886-2.658zM15 16.5a.5.5 0 0 1-.5.5H14v.5a.5.5 0 0 1-1 0V17H6v.5a.5.5 0 0 1-1 0V17h-.5a.5.5 0 0 1-.5-.5V15h3a.5.5 0 0 0 0-1H4.19l.501-1h9.617l.5 1H12a.5.5 0 1 0 0 1h3v1.5zM11.264 5.966a2.414 2.414 0 1 1 0-3.104 2.012 2.012 0 1 0 0 3.104z"/></svg>