<svg xmlns="http://www.w3.org/2000/svg" width="24" height="24" viewBox="0 0 24 24"><path d="M17.519 9.637l-1.442-5.051-2.087 10.016a.5.5 0 0 1-.465.396c-.008.002-.017.002-.025.002a.501.501 0 0 1-.477-.35l-2.602-8.241-1.464 3.293a.498.498 0 0 1-.873.074L6.5 7.4 4.916 9.777A.501.501 0 0 1 4.5 10H0v11.5C0 22.878 1.121 24 2.5 24h19c1.378 0 2.5-1.122 2.5-2.5V10h-6a.5.5 0 0 1-.481-.363zM5 21.5a.5.5 0 0 1-1 0v-1a.5.5 0 0 1 1 0v1zm3 0a.5.5 0 0 1-1 0v-3a.5.5 0 0 1 1 0v3zm3 0a.5.5 0 0 1-1 0v-1a.5.5 0 0 1 1 0v1zm3 0a.5.5 0 0 1-1 0v-3a.5.5 0 0 1 1 0v3zm3 0a.5.5 0 0 1-1 0v-1a.5.5 0 0 1 1 0v1zm2-3a.5.5 0 0 1 1 0v3a.5.5 0 0 1-1 0v-3z"/><path d="M21.5 0h-19A2.502 2.502 0 0 0 0 2.5V9h4.232l1.852-2.778c.185-.277.647-.277.832 0l1.496 2.245 1.631-3.671a.499.499 0 0 1 .933.053l2.424 7.676 2.11-10.128A.502.502 0 0 1 15.981 2a.497.497 0 0 1 .499.362L18.377 9H24V2.5C24 1.121 22.878 0 21.5 0z"/><g><path fill="none" d="M0 0h24v24H0z"/></g></svg>