<svg xmlns="http://www.w3.org/2000/svg" width="24" height="24" viewBox="0 0 24 24"><path d="M10 0C4.393 0 0 1.977 0 4.5 0 6.085 4.461 8 10 8c4.579 0 8.625-1.262 10-2.578V4.5C20 1.977 15.607 0 10 0zM10.7 17.979c-3.971.116-8.624-.8-10.7-2.617V17.5C0 20.023 4.393 22 10 22c1.223 0 2.381-.099 3.455-.271-1.08-1.079-2.165-2.393-2.755-3.75z"/><path d="M10.977 13.472c-.327.012-.654.028-.977.028-3.965 0-8.138-1.008-10-2.638V13.5c0 1.612 4.628 3.583 10.377 3.494a4.608 4.608 0 0 1 .6-3.522z"/><path d="M15.908 11.779c1.895-.487 3.367-1.164 4.092-1.858V6.669C17.864 8.106 13.783 9 10 9 6.035 9 1.862 7.992 0 6.362V9c0 1.585 4.46 3.5 10 3.5.66 0 1.307-.029 1.938-.078 1.141-.898 2.585-1.184 3.97-.643zM20.027 12.505c-.951 0-2.071.491-2.777 1.784-.706-1.293-1.826-1.784-2.777-1.784-1.584 0-3.223 1.322-3.223 3.536 0 3.181 5.473 7.198 5.706 7.367a.5.5 0 0 0 .588 0c.233-.169 5.706-4.186 5.706-7.367 0-2.214-1.639-3.536-3.223-3.536z"/><g><path fill="none" d="M0 0h24v24H0z"/></g></svg>