<svg width="29" height="45" viewBox="0 0 29 45" xmlns="http://www.w3.org/2000/svg"><title>E8BE8496-0F36-424D-8529-38DF4474B92B</title><path d="M5.8 36.818v7.273c0 .502.39.909.87.909h15.66c.48 0 .87-.407.87-.91v-7.272H5.8zM23.2 8.182V.909c0-.502-.39-.909-.87-.909H6.67c-.48 0-.87.407-.87.91v7.272h17.4zm-8.167 23.203a.903.903 0 0 1-1.066 0c-.873-.635-8.53-6.336-8.53-11.054 0-3.384 2.514-5.406 4.945-5.406 1.4 0 3.034.689 4.118 2.477 1.084-1.788 2.719-2.477 4.118-2.477 2.43 0 4.945 2.022 4.945 5.406 0 4.718-7.656 10.42-8.53 11.054m9.436-21.567H4.53A4.535 4.535 0 0 0 0 14.348v16.305a4.535 4.535 0 0 0 4.531 4.529H24.47a4.535 4.535 0 0 0 4.53-4.53V14.348a4.535 4.535 0 0 0-4.531-4.529"/></svg>