<svg width="45" height="45" viewBox="0 0 45 45" xmlns="http://www.w3.org/2000/svg"><title>677D3988-2EA2-40C0-BD5C-AA696A8EAFE0</title><g><path d="M42.4 17.059c-.16-.582-.342-1.15-.548-1.707a.937.937 0 0 1 .553-1.205.931.931 0 0 1 1.206.553c.225.607.425 1.228.598 1.86a.94.94 0 0 1-1.81.499M27.358 2.45a21.085 21.085 0 0 0-3.544-.534.938.938 0 0 1 .117-1.871 22.6 22.6 0 0 1 3.866.585c.504.12.814.628.692 1.129a.939.939 0 0 1-1.13.692m-11.804-.392a.934.934 0 0 1 .64-1.16 22.33 22.33 0 0 1 3.832-.762c.49-.062.977.313 1.035.827A.942.942 0 0 1 20.233 2a20.445 20.445 0 0 0-3.514.695.938.938 0 0 1-1.164-.637M9.009 5.653a.94.94 0 0 1 .201-1.312 22.59 22.59 0 0 1 3.337-2.027.936.936 0 1 1 .831 1.68 20.605 20.605 0 0 0-3.06 1.858.937.937 0 0 1-1.309-.199M4.072 11.26a.938.938 0 0 1-.255-1.3 22.683 22.683 0 0 1 2.455-3.042.936.936 0 1 1 1.352 1.297 20.962 20.962 0 0 0-2.25 2.79.94.94 0 0 1-1.301.255m-2.73 6.955a.936.936 0 0 1-.685-1.136c.313-1.262.74-2.507 1.268-3.7a.936.936 0 1 1 1.712.76 20.984 20.984 0 0 0-1.161 3.391.938.938 0 0 1-1.134.685m42.575 6.965a.938.938 0 0 1-.859-1.008c.092-1.152.09-2.38-.022-3.585a.94.94 0 0 1 .847-1.02.944.944 0 0 1 1.02.847c.122 1.352.122 2.629.023 3.906a.939.939 0 0 1-1.009.86m-42.864.507a.935.935 0 0 1-.93-.842 22.726 22.726 0 0 1-.07-3.908.962.962 0 0 1 1.002-.868.939.939 0 0 1 .87 1 21.035 21.035 0 0 0 .062 3.58.938.938 0 0 1-.835 1.032c-.034.002-.067.006-.1.006m40.675 6.633a.939.939 0 0 1-.463-1.243c.497-1.084.902-2.22 1.2-3.375.13-.5.636-.81 1.142-.671.502.13.804.641.673 1.142a22.589 22.589 0 0 1-1.309 3.684.936.936 0 0 1-1.243.463m-39.47.014a22.199 22.199 0 0 1-1.395-3.651.937.937 0 0 1 1.802-.512 20.652 20.652 0 0 0 1.278 3.343.936.936 0 1 1-1.686.82m34.967 5.949a.938.938 0 0 1-.01-1.326 20.645 20.645 0 0 0 2.28-2.764.937.937 0 1 1 1.545 1.063 22.79 22.79 0 0 1-2.489 3.014.936.936 0 0 1-1.326.013m-30.403.356a22.79 22.79 0 0 1-2.555-2.953.938.938 0 0 1 1.518-1.1 20.54 20.54 0 0 0 2.344 2.709.938.938 0 0 1-1.307 1.344m24.145 3.722a.938.938 0 0 1 .44-1.25 20.818 20.818 0 0 0 3.083-1.825.938.938 0 0 1 1.091 1.524 22.467 22.467 0 0 1-3.364 1.99.94.94 0 0 1-1.25-.439m-17.704.662a22.45 22.45 0 0 1-3.41-1.913.937.937 0 0 1-.248-1.3.942.942 0 0 1 1.301-.248c.988.67 2.04 1.261 3.126 1.753a.937.937 0 0 1 .47 1.24.94.94 0 0 1-1.24.468m10.428 1.03a.941.941 0 0 1 .842-1.026 20.667 20.667 0 0 0 3.52-.657.93.93 0 0 1 1.156.651.937.937 0 0 1-.65 1.155c-1.253.349-2.547.59-3.845.718-.584.034-.976-.37-1.023-.842m-2.878.887a22.652 22.652 0 0 1-3.86-.626.934.934 0 0 1-.676-1.138.93.93 0 0 1 1.138-.679 20.73 20.73 0 0 0 3.536.576.94.94 0 0 1 .867 1.005.94.94 0 0 1-1.005.862M32.422 4.412a20.614 20.614 0 0 0-1.606-.793.937.937 0 0 1-.479-1.236.933.933 0 0 1 1.236-.48c.596.264 1.183.553 1.753.868a.937.937 0 1 1-.904 1.64M38.438 3.75a4.687 4.687 0 1 1 0 9.375 4.687 4.687 0 1 1 0-9.375"/><path d="M28.294 15c4.687 2.813-.765 6.684-.765 7.159 0 .596 1.661 3.195.765 4.091-3.175 3.174-1.19 5.625-5.625 5.625-.596 0-2.813-1.279-2.813-1.875 0-3.056 3.776-9.375-2.812-9.375-1.789 0-2.044-2.3-2.044-2.3 0-5.282 5.966-6.053 5.966-4.178 1.193 1.194 3.578-1.96 3.578-1.96l-1.386-2.77a13.014 13.014 0 0 1 8.779 3.991c-1.418.463-4.018 1.365-3.643 1.592M22.5 7.5c-8.284 0-15 6.716-15 15 0 8.284 6.716 15 15 15 8.284 0 15-6.716 15-15 0-8.284-6.716-15-15-15"/></g></svg>