<svg width="45" height="45" viewBox="0 0 45 45" xmlns="http://www.w3.org/2000/svg"><title>6681EEF6-9C91-46B3-A8F8-FAE77B3FEE6C</title><g><path d="M33.61 24.497V45H45V24.497l-5.695-5.126-5.696 5.126zm1.898 3.417h7.595v-1.898h-7.595v1.898zm0 3.797h7.595v-1.898h-7.595v1.898zm0 3.797h7.595v-1.899h-7.595v1.899zm0 3.797h7.595v-1.899h-7.595v1.899zm0 3.797h7.595v-1.899h-7.595v1.899zM.387 27.914V45h2.846V31.71h1.899V45H7.03V28.863h1.9V45h3.797V19.371zM31.71 20.683v-6.058H19.596zM14.625 43.464l14.014-7.007-14.014-7.007zM28.64 21.27l-14.015-7.008v14.015zM22.218.387V6.02l-7.185 6.707h16.27L24.116 6.02V.387zM15.799 45h15.913v-7.956zM31.71 21.856l-14.013 7.007L31.71 35.87z"/></g></svg>