<svg width="47" height="47" viewBox="0 0 47 47" xmlns="http://www.w3.org/2000/svg"><title>ic-dynamicdelivery</title><g><path d="M6 27h35v19.008a.995.995 0 0 1-1.01.992H7.01C6.452 47 6 46.545 6 46.008V27z"/><path d="M37.262 17.64a3.923 3.923 0 0 1-3.923-3.92 3.923 3.923 0 0 1 7.845 0 3.921 3.921 0 0 1-3.922 3.92zm9.113-2.054l-1.377-.796c.143-1.062.143-1.074 0-2.14l1.377-.792a.985.985 0 0 0 .359-1.34L44.77 7.122a.98.98 0 0 0-1.34-.361l-1.376.796a7.642 7.642 0 0 0-1.852-1.094V4.9a.98.98 0 0 0-.98-.98H35.3a.98.98 0 0 0-.98.98v1.562a7.756 7.756 0 0 0-1.853 1.094l-1.375-.792a.981.981 0 0 0-1.342.357l-1.96 3.394a.978.978 0 0 0 .36 1.341l1.375.794c-.143 1.058-.145 1.074 0 2.136l-1.379.796a.986.986 0 0 0-.36 1.34l1.962 3.395a.984.984 0 0 0 1.342.361l1.373-.794c.566.443 1.18.823 1.855 1.098v1.558c0 .541.44.98.98.98h3.923a.98.98 0 0 0 .98-.98v-1.562a7.802 7.802 0 0 0 1.856-1.096l1.374.792a.98.98 0 0 0 1.34-.36l1.96-3.395a.968.968 0 0 0-.356-1.333zM8.827 15.68c-3.787 0-6.866-3.075-6.866-6.858 0-3.78 3.08-6.862 6.866-6.862 3.783 0 6.862 3.081 6.862 6.862 0 3.783-3.079 6.858-6.862 6.858m12.46 4.208l-5.598-5.592c1.208-1.509 1.961-3.396 1.961-5.474 0-4.863-3.957-8.82-8.823-8.82C3.961.002 0 3.959 0 8.822c0 4.86 3.961 8.818 8.827 8.818 2.079 0 3.965-.755 5.476-1.96l5.595 5.594a.985.985 0 0 0 1.386 0 .979.979 0 0 0 .002-1.386" fill-rule="nonzero"/><path d="M35.461 25.48c-1.573 0-2.941-1.15-2.941-3.27a1.18 1.18 0 0 1-.07-.037c-1.96 1.094-3.582.5-4.376-.874l-1.962-3.394c-.776-1.343-.52-3.1 1.365-4.183h-9.076c-.06.114-.106.233-.168.345l4.44 4.435a2.941 2.941 0 0 1-4.16 4.157l-4.44-4.433c-2.167 1.21-4.026 1.47-6.025 1.321l-1.9 5.933h29.313z" fill-rule="nonzero"/></g></svg>