<svg width="36" height="45" viewBox="0 0 36 45" xmlns="http://www.w3.org/2000/svg"><title>C0BFC66B-A722-42F3-9D70-06BA3F814DE2</title><g><path d="M25.388 30H10.343a.94.94 0 0 0-.94.938.94.94 0 0 0 .94.937h15.045a.94.94 0 0 0 .94-.938.94.94 0 0 0-.94-.937M25.388 33.75H10.343a.94.94 0 0 0-.94.938.94.94 0 0 0 .94.937h15.045a.94.94 0 0 0 .94-.938.94.94 0 0 0-.94-.937"/><path d="M34.791 3.75H30.09V7.5h.94c.519 0 .94.42.94.938v31.874a.94.94 0 0 1-.94.938H4.7a.94.94 0 0 1-.94-.938V8.439a.94.94 0 0 1 .94-.938h.94V3.75h-4.7A.94.94 0 0 0 0 4.688v39.374A.94.94 0 0 0 .94 45h33.851a.94.94 0 0 0 .94-.938V4.688a.94.94 0 0 0-.94-.938"/><path d="M8.463 11.25h18.806a.94.94 0 0 0 .94-.938V4.689a.94.94 0 0 0-.94-.938h-4.796a4.706 4.706 0 0 0-9.215 0H8.463a.94.94 0 0 0-.94.938v5.625a.94.94 0 0 0 .94.937M20.594 25.688c-2.182-1.053-3.59-3.408-3.59-6s1.408-4.948 3.59-6c.246-.12.184-.485-.088-.518-3.919-.455-7.342 2.613-7.342 6.518 0 3.893 3.41 6.971 7.341 6.518.271-.03.336-.399.089-.518"/></g></svg>