<svg width="45" height="45" viewBox="0 0 45 45" xmlns="http://www.w3.org/2000/svg"><title>44552DF0-E03A-4DBF-B388-88865B6D2FA9</title><path d="M40.45 27.763a.941.941 0 0 1-.779-.414l-2.692-4.013c-.375 6.287-4.991 11.995-11.486 13.53-1.139.27-2.288.401-3.424.401-3.827.002-7.53-1.49-10.343-4.261a.94.94 0 0 1-.011-1.328.942.942 0 0 1 1.326-.011c3.185 3.139 7.68 4.402 12.018 3.373 5.828-1.378 10.04-6.844 10.067-12.551l-3.7 4.427a.938.938 0 0 1-1.44-1.202l5.091-6.096c.154-.23.565-.497.89-.478a.937.937 0 0 1 .729.414l4.532 6.748a.934.934 0 0 1-.257 1.3.9.9 0 0 1-.522.161m-12.268-.917c0 .773-.077 1.54-.227 2.276a1.603 1.603 0 0 1-1.556 1.268c-.802 0-1.468-.6-1.55-1.399-.2-1.873-1.23-3.343-2.348-3.343-1.11 0-2.141 1.463-2.344 3.328a1.585 1.585 0 0 1-1.578 1.414 1.576 1.576 0 0 1-1.527-1.23 11.588 11.588 0 0 1-.234-2.314c0-1.258.204-2.494.598-3.611-1.026-1.252-1.543-2.904-1.543-4.926 0-2.664 1.764-4.753 4.02-4.753.973 0 1.89.347 2.608.964a3.998 3.998 0 0 1 2.608-.964c2.254 0 4.02 2.089 4.02 4.753 0 2.02-.517 3.674-1.541 4.926.39 1.117.594 2.353.594 3.611m-19.897.671l-.049-.001a.937.937 0 0 1-.73-.415l-4.533-6.75a.936.936 0 0 1 .255-1.3.94.94 0 0 1 1.301.256l2.363 3.517a14.903 14.903 0 0 1 2.124-7.507c2.158-3.615 5.689-6.23 9.688-7.176a14.755 14.755 0 0 1 14.45 4.588.934.934 0 0 1-.08 1.322.935.935 0 0 1-1.322-.079 12.863 12.863 0 0 0-12.615-4.005c-3.51.831-6.611 3.132-8.51 6.312-1.502 2.518-2.098 5.355-1.774 8.16l3.919-4.697a.939.939 0 0 1 1.44 1.202l-5.205 6.24a.957.957 0 0 1-.722.333M22.5 0C10.074 0 0 10.074 0 22.5S10.074 45 22.5 45 45 34.926 45 22.5 34.926 0 22.5 0"/></svg>