<svg width="45" height="45" viewBox="0 0 45 45" xmlns="http://www.w3.org/2000/svg"><title>5E33BA81-321F-4F0B-9691-2FABA592E5B2</title><g><path d="M21.56 30h-8.435l-6.349 7.903c.079.128.16.259.238.38.147.325.22.393.396.664.64 1.015 2.574 2.303 3.838 2.292h10.313a.919.919 0 0 0 .937-.926v-9.387a.927.927 0 0 0-.937-.926"/><path d="M13.549 27.188h3.324a.937.937 0 1 0 .752-1.496L12 17.241a.92.92 0 0 0-.752-.367H.936c-.927-.03-1.285 1.146-.52 1.706l1.825 1.215C1.614 20.53.936 22.67.936 24.375c0 2.055 2.418 7.598 4.83 11.835 0 0 7.2-8.359 7.783-9.023M44.447 22.206l-5.801-8.387a.935.935 0 0 0-1.303-.24l-8.132 5.623a.932.932 0 0 0-.388.605.929.929 0 0 0 .151.7l4.109 5.934 11.373.743c.69-1.138.72-3.927-.01-4.978"/><path d="M31.873 28.226V26.25a.937.937 0 0 0-1.717-.52l-5.625 8.438a.942.942 0 0 0-.036.979l5.276 9.375a.94.94 0 0 0 1.755-.386l.242-3.074c.38.11.827.192 1.32.192.917 0 1.785-.28 2.578-.829 1.354-.936 3.942-4.783 7.697-11.434.002.002-11.383-.752-11.49-.765M7.575 13.266l8.942 4.218a.933.933 0 0 0 1.249-.446l2.934-6.221L15.833.322l-.407.012a2.234 2.234 0 0 0-.617.028l-.011.002c-1.163.174-2.648 1.009-3.188 2.154l-4.481 9.5a.953.953 0 0 0-.038.719c.087.234.26.424.484.529"/><path d="M32.813 14.051l5.52-9.675a.943.943 0 0 0-.132-1.052.947.947 0 0 0-1.025-.258l-2.817 1.04c-.333-.902-1.074-2.107-2.71-2.88C31.15.992 29.643.283 20.03.283c-.73 0-1.446.002-2.143.01 0 0 5.064 10.963 5.225 11.32-.72.561-1.57 1.752-1.57 2.429 0 .25.104.491.278.667.176.175.431.28.679.28.036 0 9.478-.426 9.478-.426.35 0 .677-.199.834-.512"/></g></svg>