<svg xmlns="http://www.w3.org/2000/svg" width="24" height="24" viewBox="0 0 24 24"><path d="M15.463 6H8.547a14.401 14.401 0 0 0-1.042 5h9a14.447 14.447 0 0 0-1.042-5zM6.557 12H.013a12.387 12.387 0 0 0 1.158 5h6.307a17.81 17.81 0 0 1-.921-5zM12.004 23.323l.101-.134c1.292-1.723 2.284-3.459 3.009-5.189h-6.22c.726 1.73 1.718 3.468 3.011 5.192l.099.131zM16.5 12H7.51c.062 1.643.388 3.314.989 5h7.01c.602-1.686.929-3.357.991-5zM16.492 6c.596 1.613.919 3.288.966 5h6.493a11.824 11.824 0 0 0-1.561-5h-5.898zM1.482 6a11.673 11.673 0 0 0-1.446 5h6.515c.047-1.712.37-3.387.967-5H1.482zM16.53 17h6.349a11.968 11.968 0 0 0 1.119-5h-6.546a17.777 17.777 0 0 1-.922 5zM11.105 23.792C9.676 21.886 8.596 19.944 7.836 18H1.693c1.972 3.382 5.482 5.709 9.54 5.962l-.128-.17zM16.172 18c-.759 1.942-1.839 3.884-3.267 5.788l-.128.172c4.092-.275 7.624-2.598 9.583-5.959h-6.188zM7.927 5A17.902 17.902 0 0 1 11.138.172l.13-.142C7.4.252 4.12 2.144 2.112 5h5.815zM12.872.172A17.902 17.902 0 0 1 16.083 5h5.658A11.985 11.985 0 0 0 12.748.039l.124.133zM12.005.706l-.133.144A17.46 17.46 0 0 0 9.006 5h5.998A17.407 17.407 0 0 0 12.138.851l-.133-.145z"></path><g><path fill="none" d="M0 0h24v24H0z"></path></g></svg>