<?xml version="1.0" encoding="utf-8"?>
<!-- Generator: Adobe Illustrator 21.0.2, SVG Export Plug-In . SVG Version: 6.00 Build 0)  -->
<svg version="1.1" id="Layer_1" xmlns="http://www.w3.org/2000/svg" xmlns:xlink="http://www.w3.org/1999/xlink" x="0px" y="0px"
	 viewBox="0 0 21 22" style="enable-background:new 0 0 21 22;" xml:space="preserve">
<path id="Shape" d="M19.6,13.7H1.4l-1.2,1.2c-0.1,0.1-0.2,0.2-0.2,0.4v1.6h5.2c0.3,0,0.5,0.2,0.5,0.5c0,0.3-0.2,0.5-0.5,0.5H0.1v1.6
	c0,0.3,0.2,0.5,0.5,0.5h0.5v1.6c0,0.3,0.2,0.5,0.5,0.5h3.1c0.3,0,0.5-0.2,0.5-0.5v-1.6h10.4v1.6c0,0.3,0.2,0.5,0.5,0.5h3.1
	c0.3,0,0.5-0.2,0.5-0.5v-1.6h0.5c0.3,0,0.5-0.2,0.5-0.5v-1.6h-5.2c-0.3,0-0.5-0.2-0.5-0.5c0-0.3,0.2-0.5,0.5-0.5h5.2v-1.6
	c0-0.1-0.1-0.3-0.2-0.4L19.6,13.7z"/>
<path id="Shape_1_" d="M16.2,7.4H4.8c-0.2,0-0.4,0.1-0.5,0.3l-2,4.9h16.3l-2-4.9C16.6,7.5,16.4,7.4,16.2,7.4z"/>
<path id="Shape_2_" d="M13.1,4.3c-0.7-0.7-1.6-1.1-2.6-1.1h0c-1,0-1.9,0.4-2.6,1.1L7.3,3.7c0.8-0.9,2-1.4,3.2-1.4h0
	c1.2,0,2.3,0.5,3.2,1.4L13.1,4.3z"/>
<path id="Shape_3_" d="M6.7,2.7L6.2,2.1c2.4-2.5,6.3-2.5,8.7,0l-0.6,0.6C12.2,0.5,8.8,0.5,6.7,2.7z"/>
<path id="Shape_4_" d="M9.1,6L8.5,5.4c1.1-1.2,2.9-1.2,4,0L11.9,6C11.1,5.2,9.9,5.1,9.1,6z"/>
<path id="Shape_5_" d="M13.1,4.3c-0.7-0.7-1.6-1.1-2.6-1.1h0c-1,0-1.9,0.4-2.6,1.1L7.3,3.7c0.8-0.9,2-1.4,3.2-1.4h0
	c1.2,0,2.3,0.5,3.2,1.4L13.1,4.3z"/>
<path id="Shape_6_" d="M11.9,6c-0.8-0.8-2.1-0.8-2.9,0L8.5,5.4c1.1-1.2,2.9-1.2,4,0L11.9,6z"/>
</svg>
