<svg xmlns="http://www.w3.org/2000/svg" width="24" height="24" viewBox="0 0 24 24"><path d="M23.5 5H.5a.5.5 0 0 0-.5.5v10a.5.5 0 0 0 .5.5h3a.5.5 0 0 0 .494-.424L4.929 10h14.143l.935 5.576A.498.498 0 0 0 20.5 16h3a.5.5 0 0 0 .5-.5v-10a.5.5 0 0 0-.5-.5zM16.116 4l-.695-4H12a.5.5 0 0 1 .5.5v1a.5.5 0 0 1-1 0v-1A.5.5 0 0 1 12 0H8.579l-.695 4h8.232z"/><path d="M17.334 11H6.666L4.405 24H11.5v-4.5a.5.5 0 1 1 1 0V24h7.095l-2.261-13zM12.5 15.5a.5.5 0 0 1-1 0v-3a.5.5 0 1 1 1 0v3z"/><g><path fill="none" d="M0 0h24v24H0z"/></g></svg>