<svg xmlns="http://www.w3.org/2000/svg" width="24" height="24" viewBox="0 0 24 24"><circle cx="4" cy="4" r=".5"/><circle cx="4" cy="18" r=".5"/><circle cx="4" cy="11" r=".5"/><path d="M22 7V1.5c0-.827-.673-1.5-1.5-1.5h-19C.673 0 0 .673 0 1.5V7h22zM8 3h10a.5.5 0 0 1 0 1H8a.5.5 0 0 1 0-1zm0 2h10a.5.5 0 0 1 0 1H8a.5.5 0 0 1 0-1zM4 2.5c.827 0 1.5.673 1.5 1.5S4.827 5.5 4 5.5 2.5 4.827 2.5 4 3.173 2.5 4 2.5zM0 15v5.5c0 .827.673 1.5 1.5 1.5h19c.827 0 1.5-.673 1.5-1.5V15H0zm4 4.5c-.827 0-1.5-.673-1.5-1.5s.673-1.5 1.5-1.5 1.5.673 1.5 1.5-.673 1.5-1.5 1.5zm14 .5H8a.5.5 0 0 1 0-1h10a.5.5 0 0 1 0 1zm0-2H8a.5.5 0 0 1 0-1h10a.5.5 0 0 1 0 1zM22 8H0v6h22V8zM4 12.5c-.827 0-1.5-.673-1.5-1.5S3.173 9.5 4 9.5s1.5.673 1.5 1.5-.673 1.5-1.5 1.5zm14 .5H8a.5.5 0 0 1 0-1h10a.5.5 0 0 1 0 1zm0-2H8a.5.5 0 0 1 0-1h10a.5.5 0 0 1 0 1z"/><g><path fill="none" d="M0 0h24v24H0z"/></g></svg>