<svg width="118" height="98" viewBox="0 0 118 98" xmlns="http://www.w3.org/2000/svg"><title>Group</title><g><path d="M102.613 84.341h2.23c5.811 0 10.522-4.712 10.522-10.523V10.742c0-5.812-4.712-10.523-10.522-10.523H55.158c-5.813 0-10.524 4.712-10.524 10.523v63.075c0 5.812 4.712 10.523 10.524 10.523h2.229L42.37 97.78h9.469l4.813-4.308h46.693l4.813 4.308h9.469l-15.014-13.439zm-1.54-6.489a5.174 5.174 0 1 1-.001-10.349 5.174 5.174 0 0 1 .001 10.349zM68.224 4.141h23.553a2.895 2.895 0 0 1 0 5.789H68.224a2.895 2.895 0 0 1 0-5.789zM49.896 45.923V19.43a5.262 5.262 0 0 1 5.263-5.262h49.686a5.26 5.26 0 0 1 5.261 5.262v26.493a5.262 5.262 0 0 1-5.261 5.263H55.158a5.263 5.263 0 0 1-5.262-5.263zm3.858 26.754a5.175 5.175 0 1 1 10.35 0 5.175 5.175 0 0 1-10.35 0zm9.955 14.481l3.115-2.817h26.47l2.998 2.817H63.709zM19 31.152V0H0v98h19V53.623l9.177-1.95L19 31.152z"/></g></svg>