<svg viewBox="0 0 76 98" xmlns="http://www.w3.org/2000/svg"><title>Group 2</title><g><path d="M60.613 84.341h2.23c5.811 0 10.522-4.712 10.522-10.523V10.742C73.365 4.93 68.653.219 62.843.219H13.158C7.345.219 2.634 4.931 2.634 10.742v63.075c0 5.812 4.712 10.523 10.524 10.523h2.229L.37 97.78h9.469l4.813-4.308h46.693l4.813 4.308h9.469L60.613 84.341zm-1.54-6.489a5.174 5.174 0 1 1-.001-10.349 5.174 5.174 0 0 1 .001 10.349zM26.224 4.141h23.553a2.895 2.895 0 0 1 0 5.789H26.224a2.895 2.895 0 0 1 0-5.789zM7.896 45.923V19.43a5.262 5.262 0 0 1 5.263-5.262h49.686a5.26 5.26 0 0 1 5.261 5.262v26.493a5.262 5.262 0 0 1-5.261 5.263H13.158a5.263 5.263 0 0 1-5.262-5.263zm3.858 26.754a5.175 5.175 0 1 1 10.35 0 5.175 5.175 0 0 1-10.35 0zm9.955 14.481l3.115-2.817h26.47l2.998 2.817H21.709z"/><path d="M50.607 24.571c.212.215.302.46.302.766s-.12.55-.302.765l-4.988 5.051c-.424.429-1.089.429-1.482 0-.423-.429-.423-1.102 0-1.5l4.263-4.316-2.449-2.48v2.48c0 .581-.484 1.071-1.058 1.071H32.377c-2.842 0-5.17 2.357-5.17 5.235 0 .581-.484 1.071-1.058 1.071-.575 0-1.058-.49-1.058-1.071 0-4.072 3.265-7.378 7.286-7.378h11.428v-3.98c0-.428.272-.826.665-.979a1.07 1.07 0 0 1 1.149.245l4.988 5.02zm-.756 10.715c-.574 0-1.058.49-1.058 1.071 0 2.878-2.328 5.235-5.17 5.235H31.137c-.574 0-1.058.49-1.058 1.071v2.48l-2.449-2.48 4.263-4.316c.423-.429.423-1.102 0-1.5-.423-.429-1.088-.429-1.481 0l-5.019 5.051c-.423.429-.423 1.102 0 1.5l4.988 5.051c.212.214.484.306.756.306.151 0 .272-.03.393-.092.393-.153.665-.55.665-.98v-3.979h11.428c4.021 0 7.286-3.306 7.286-7.377 0-.551-.453-1.041-1.058-1.041zM39.21 34A1.22 1.22 0 0 0 38 32.776 1.22 1.22 0 0 0 36.79 34 1.22 1.22 0 0 0 38 35.224 1.22 1.22 0 0 0 39.21 34zm3.75 0a1.22 1.22 0 0 0-1.21-1.224A1.22 1.22 0 0 0 40.539 34a1.22 1.22 0 0 0 1.21 1.224A1.22 1.22 0 0 0 42.959 34zm-7.499 0a1.22 1.22 0 0 0-1.209-1.224A1.22 1.22 0 0 0 33.041 34a1.22 1.22 0 0 0 1.21 1.224A1.22 1.22 0 0 0 35.461 34z"/></g></svg>