<svg xmlns="http://www.w3.org/2000/svg" width="24" height="24" viewBox="0 0 24 24"><path d="M18.5 0h-13C4.673 0 4 .673 4 1.5v6C4 8.327 4.673 9 5.5 9h13c.827 0 1.5-.673 1.5-1.5v-6c0-.827-.673-1.5-1.5-1.5zM8 7H6V6h2v1zm4 0a2.503 2.503 0 0 1-2.5-2.5C9.5 3.122 10.622 2 12 2s2.5 1.122 2.5 2.5C14.5 5.879 13.378 7 12 7zm6-4h-2V2h2v1zM7 21.687V13.5C7 11.57 5.43 10 3.5 10S0 11.57 0 13.5v10a.5.5 0 0 0 .5.5h6a.5.5 0 0 0 .5-.5v-1.813zM5 14H2v-1h3v1zM11.5 14H8v7.301A6.945 6.945 0 0 0 12 15v-.5a.5.5 0 0 0-.5-.5z"/><g><path d="M16 14h-3.5a.5.5 0 0 0-.5.5v.5a6.941 6.941 0 0 0 4 6.301V14zM20.5 10c-1.93 0-3.5 1.57-3.5 3.5V23.5a.5.5 0 0 0 .5.5h6a.5.5 0 0 0 .5-.5v-10c0-1.93-1.57-3.5-3.5-3.5zm1.5 4h-3v-1h3v1z"/></g><g><path fill="none" d="M0 0h24v24H0z"/></g></svg>