<svg width="84" height="30" viewBox="0 0 84 30" xmlns="http://www.w3.org/2000/svg"><title>4E11675B-2E19-45DC-8256-79A3E299C791</title><g fill="none" fill-rule="evenodd"><path fill="#5336FF" d="M0 0h84v30H0z"/><text font-family="Avenir-Light, Avenir" font-size="10" font-weight="300" fill="#FFF"><tspan x="30" y="19">Feedback</tspan></text><path d="M21.563 14.571h-8.125a.311.311 0 0 1-.313-.31c0-.17.14-.309.313-.309h8.124c.173 0 .313.139.313.31 0 .17-.14.31-.313.31m0 1.856h-8.125a.311.311 0 0 1-.312-.31c0-.17.14-.309.313-.309h8.124c.173 0 .313.139.313.31 0 .17-.14.31-.313.31m-8.125-4.334h5.626c.172 0 .312.139.312.31 0 .17-.14.31-.313.31h-5.625a.311.311 0 0 1-.312-.31c0-.171.14-.31.313-.31M24.688 9H10.313a.311.311 0 0 0-.313.31v9.904c0 .17.14.31.313.31h4.062v2.166c0 .275.338.414.533.22l2.409-2.386h7.37a.311.311 0 0 0 .313-.31V9.31c0-.171-.14-.31-.313-.31" fill="#FFF"/></g></svg>