<svg width="30" height="30" viewBox="0 0 30 30" xmlns="http://www.w3.org/2000/svg"><title>1997E544-2B05-4030-953D-F3498B0649EC</title><g fill="none" fill-rule="evenodd"><path fill="#029DF7" d="M0 0h30v30H0z"/><path d="M23 10.547c-.589.26-1.22.437-1.885.516a3.292 3.292 0 0 0 1.443-1.812 6.623 6.623 0 0 1-2.086.796 3.275 3.275 0 0 0-2.395-1.035 3.28 3.28 0 0 0-3.197 4.023A9.323 9.323 0 0 1 8.115 9.61a3.274 3.274 0 0 0 1.016 4.375 3.286 3.286 0 0 1-1.487-.411v.04a3.282 3.282 0 0 0 2.632 3.214 3.33 3.33 0 0 1-.864.115c-.212 0-.417-.02-.618-.06a3.283 3.283 0 0 0 3.065 2.275 6.592 6.592 0 0 1-4.076 1.4c-.265 0-.526-.015-.783-.044a9.288 9.288 0 0 0 5.031 1.475c6.038 0 9.338-4.994 9.338-9.325l-.01-.424A6.549 6.549 0 0 0 23 10.547z" fill-rule="nonzero" fill="#FFF"/></g></svg>