<svg xmlns="http://www.w3.org/2000/svg" width="24" height="24" viewBox="0 0 24 24"><path d="M20.5 3h-16a.5.5 0 0 1 0-1h16a.5.5 0 0 1 0 1zM3.5 8h-2a.5.5 0 0 1 0-1h2a.5.5 0 0 1 0 1zM3.5 11h-2a.5.5 0 0 1 0-1h2a.5.5 0 0 1 0 1zM3.5 14h-2a.5.5 0 0 1 0-1h2a.5.5 0 0 1 0 1zM3.5 17h-2a.5.5 0 0 1 0-1h2a.5.5 0 0 1 0 1zM3.5 20h-2a.5.5 0 0 1 0-1h2a.5.5 0 0 1 0 1z"/><path d="M3 2.5C3 1.673 3.673 1 4.5 1h17a.5.5 0 0 0 0-1h-17A2.503 2.503 0 0 0 2 2.5v4h1.5a1 1 0 1 1 0 2H2v1h1.5a1 1 0 1 1 0 2H2v1h1.5a1 1 0 1 1 0 2H2v1h1.5a1 1 0 1 1 0 2H2v1h1.5a1 1 0 1 1 0 2H2v1C2 22.878 3.121 24 4.5 24h17a.5.5 0 0 0 .5-.5v-19a.5.5 0 0 0-.5-.5h-17C3.673 4 3 3.327 3 2.5zM12.5 7a4.348 4.348 0 0 1 4.343 4.343c0 2.208-3.524 7.609-3.926 8.218-.196.3-.638.3-.834 0-.402-.608-3.926-6.009-3.926-8.218A4.348 4.348 0 0 1 12.5 7z"/><circle cx="12.5" cy="11.343" r="2.037"/><g><path fill="none" d="M0 0h24v24H0z"/></g></svg>