<svg xmlns="http://www.w3.org/2000/svg" width="24" height="24" viewBox="0 0 24 24"><path d="M24 17V5.088C24 3.937 23.103 3 22 3H2C.897 3 0 3.937 0 5.088V17h24zm-7-6.429V6a.5.5 0 0 1 1 0v4.571c.86.224 1.5 1 1.5 1.929s-.64 1.706-1.5 1.929V15a.5.5 0 0 1-1 0v-.571c-.86-.224-1.5-1-1.5-1.929s.64-1.706 1.5-1.929zm-5.5-4V6a.5.5 0 0 1 1 0v.571c.86.224 1.5 1 1.5 1.929s-.64 1.706-1.5 1.929V15a.5.5 0 0 1-1 0v-4.571c-.86-.224-1.5-1-1.5-1.929s.64-1.706 1.5-1.929zm-5.5 4L6.001 6a.5.5 0 0 1 1 0L7 10.571c.86.224 1.5 1 1.5 1.929s-.64 1.706-1.5 1.929V15a.5.5 0 0 1-1 0v-.571c-.86-.224-1.5-1-1.5-1.929s.64-1.706 1.5-1.929zM0 18v1.912C0 21.063.897 22 2 22h9.5v1H5a.5.5 0 0 0 0 1h14a.5.5 0 0 0 0-1h-6.5v-1H22c1.103 0 2-.937 2-2.088V18H0zm12 3c-.551 0-1-.449-1-1s.449-1 1-1 1 .449 1 1-.449 1-1 1z"/><g><path fill="none" d="M0 0h24v24H0z"/></g></svg>