<?xml version="1.0" encoding="UTF-8"?>
<svg width="45px" height="57px" viewBox="0 0 45 57" version="1.1" xmlns="http://www.w3.org/2000/svg" xmlns:xlink="http://www.w3.org/1999/xlink">
    <!-- Generator: sketchtool 42 (36781) - http://www.bohemiancoding.com/sketch -->
    <title>E95E2A6B-C3EE-4D91-9C7A-F0EF31462EEF</title>
    <desc>Created with sketchtool.</desc>
    <defs></defs>
    <g id="Desktop" stroke="none" stroke-width="1" fill="none" fill-rule="evenodd">
        <g id="Other" transform="translate(-274.000000, -1238.000000)">
            <g id="LOGO_HW" transform="translate(275.000000, 1238.000000)">
                <path d="M12.584419,15.0327667 L12.5871129,15.0327667 L12.5871129,8.86201005 L16.3974531,8.86201005 L16.3974531,16.5944386 L12.584419,16.5944386 L12.584419,15.0327667 Z M12.5871129,6.17063704 L16.3974531,6.17063704 L16.3974531,2.36510794 L12.5871129,2.36510794 L12.5871129,6.17063704 Z M19.0922286,8.86201005 L26.8314395,8.86201005 L26.8314395,16.5941397 L19.0922286,16.5944386 L19.0922286,8.86201005 Z M19.0922286,2.36510794 L20.6555755,2.36510794 L20.6555755,2.36809735 L26.833834,2.36809735 L26.833834,6.17063704 L19.0922286,6.17063704 L19.0922286,2.36510794 Z M29.5259156,23.0937323 L33.3365551,23.0937323 L33.3365551,19.2879042 L29.5259156,19.2879042 L29.5259156,23.0937323 Z M11.4003102,25.4559704 C12.0543238,25.4559704 12.584419,24.9268434 12.584419,24.2736556 L12.584419,19.2855127 L16.4339701,19.2855127 L16.4339701,19.2879042 L26.8314395,19.2879042 L26.8314395,23.0940312 L21.8366912,23.0940312 C21.1829769,23.0940312 20.6528816,23.6231582 20.6528816,24.276346 C20.6528816,24.9292349 21.1829769,25.4589598 21.8366912,25.4589598 L33.3365551,25.4589598 L34.5203646,25.4589598 C35.1743782,25.4589598 35.7044735,24.9292349 35.7044735,24.276346 L35.7044735,23.0940312 L35.7044735,11.6086873 C35.7044735,10.9554995 35.1743782,10.4263725 34.5203646,10.4263725 C33.8666503,10.4263725 33.3365551,10.9554995 33.3365551,11.6086873 L33.3365551,16.5968302 L29.5286095,16.5968302 L29.5286095,2.36809735 L34.5233578,2.36809735 C35.1770721,2.36809735 35.7071673,1.83837249 35.7071673,1.1854836 C35.7071673,0.532295767 35.1770721,0.00286984127 34.5233578,0.00286984127 L25.2707864,0.00286984127 L25.2707864,0.000179365079 L12.5871129,0.000179365079 L11.4033034,0.000179365079 C10.7489905,0.000179365079 10.2191946,0.529306349 10.2191946,1.18249418 L10.2191946,2.36510794 L10.2191946,10.4233831 L10.2165007,10.4233831 L10.2165007,24.2736556 C10.2165007,24.9268434 10.7462966,25.4559704 11.4003102,25.4559704 L11.4003102,25.4559704 Z" id="Fill-1" fill="#FFFFFF"></path>
                <path d="M42.4702068,27.8367429 C42.8599211,27.8367429 43.1891728,27.7093937 43.4591592,27.4552931 C43.7285469,27.2008937 43.8632408,26.8941794 43.8632408,26.5351503 C43.8632408,26.1758222 43.7285469,25.8691079 43.4591592,25.6147085 C43.1891728,25.3606079 42.8599211,25.2332587 42.4702068,25.2332587 C42.0807918,25.2332587 41.7587238,25.3606079 41.5040027,25.6147085 C41.2417986,25.8691079 41.1106966,26.1758222 41.1106966,26.5351503 C41.1106966,26.8941794 41.2417986,27.2008937 41.5040027,27.4552931 C41.7587238,27.7093937 42.0807918,27.8367429 42.4702068,27.8367429" id="Fill-3" fill="#FFFFFF"></path>
                <path d="M39.2793986,27.8367429 C39.6691129,27.8367429 39.9908816,27.7093937 40.245902,27.4552931 C40.5078068,27.2008937 40.6389088,26.8941794 40.6389088,26.5351503 C40.6389088,26.1758222 40.5078068,25.8691079 40.245902,25.6147085 C39.9908816,25.3606079 39.6691129,25.2332587 39.2793986,25.2332587 C38.8899837,25.2332587 38.5604327,25.3606079 38.2907456,25.6147085 C38.0210585,25.8691079 37.8863646,26.1758222 37.8863646,26.5351503 C37.8863646,26.8941794 38.0210585,27.2008937 38.2907456,27.4552931 C38.5604327,27.7093937 38.8899837,27.8367429 39.2793986,27.8367429" id="Fill-5" fill="#FFFFFF"></path>
                <path d="M5.32678367,37.3409995 C4.53268844,37.3033328 3.84365442,36.9930312 3.25938231,36.4094968 C2.67540952,35.8262614 2.37908299,35.1079042 2.37189932,34.2550233 L2.37189932,34.2329016 C2.37189932,33.3498275 2.67540952,32.6093487 3.28183129,32.0108672 C3.88855238,31.4123857 4.60392653,31.1092587 5.42795374,31.1020841 L5.56264762,31.1020841 C6.34896054,31.1316794 7.03051156,31.4237455 7.60730068,31.9773857 C8.20653878,32.5982878 8.50615782,33.3498275 8.50615782,34.2329016 L8.50615782,37.3409995 L5.32678367,37.3409995 Z M16.6518449,32.7740656 C17.251083,32.1755841 17.970049,31.8724571 18.8090422,31.8649836 C19.6477361,31.8724571 20.366702,32.1755841 20.9659401,32.7740656 C21.5651782,33.3725471 21.8686884,34.1091397 21.8761714,34.9844413 C21.8686884,35.8597429 21.5726612,36.5888619 20.9883891,37.1726952 C20.4044163,37.7562296 19.7189741,38.0665312 18.9323619,38.1038989 L18.438185,38.0814783 C17.749151,37.9989704 17.1274639,37.6811952 16.5731238,37.127555 C16.0187837,36.5742138 15.7416136,35.8597429 15.7416136,34.9844413 C15.7490966,34.1091397 16.0526068,33.3725471 16.6518449,32.7740656 L16.6518449,32.7740656 Z M5.50577687,42.7494545 C6.92574966,42.7494545 8.1370966,42.2556026 9.13862041,41.2681979 C9.79652517,40.609928 10.2149741,39.9178778 10.3948653,39.192346 L11.157532,39.192346 L12.168634,39.192346 L15.9777769,39.192346 C16.7341578,39.6861979 17.8503211,39.9328249 19.3259673,39.9328249 C20.1945932,39.8509148 20.9587565,39.6036899 21.6178585,39.192346 L23.9995456,39.192346 L25.0330966,39.192346 L37.0436,39.192346 L38.0436272,39.192346 L43.6274367,39.192346 L43.6274367,29.1156159 L41.6615048,29.1156159 L41.6615048,37.3409995 L38.0436272,37.3409995 L37.0436,37.3409995 L36.706566,37.3409995 L36.706566,32.0141556 L34.740634,32.0141556 L34.740634,37.3409995 L32.2574776,37.3409995 L32.2574776,31.9797772 L30.2912463,31.9797772 L30.2912463,37.3409995 L28.3474639,37.3409995 L28.3474639,32.0183407 L26.381532,32.0183407 L26.381532,37.3409995 L25.0330966,37.3409995 L23.9995456,37.3409995 L23.3254776,37.3409995 C23.6999265,36.7649386 23.8873007,35.9757323 23.8873007,34.9730815 C23.8873007,33.562973 23.3928245,32.3579386 22.4041714,31.3570815 C21.4155184,30.3568222 20.213151,29.8563937 18.797668,29.8563937 C17.367219,29.8563937 16.1573687,30.3568222 15.1687156,31.3570815 C14.1800626,32.3579386 13.6855864,33.562973 13.6855864,34.9730815 C13.6855864,35.9757323 13.8765524,36.7649386 14.2587837,37.3409995 L12.168634,37.3409995 L11.157532,37.3409995 L10.562185,37.3409995 L10.562185,34.1429201 C10.554702,32.751346 10.0647156,31.5693302 9.09192653,30.5968725 C8.11913741,29.6247138 6.9446068,29.1233884 5.56803537,29.0934942 L5.44471565,29.0934942 C4.03042993,29.0934942 2.82955918,29.587346 1.84180408,30.5744519 C0.854348299,31.5621556 0.360770068,32.751346 0.360770068,34.1429201 L0.360770068,34.2550233 C0.398185034,35.586809 0.888770068,36.7311582 1.83252517,37.6886688 C2.77628027,38.6461794 3.91130068,39.1475048 5.23668844,39.192346 L8.15804898,39.192346 C8.08291973,39.3917402 7.8958449,39.6452429 7.59622585,39.952854 C6.98202177,40.5827243 6.25168163,40.897809 5.40550476,40.897809 L5.10199456,40.897809 L0.14974966,40.897809 L0.14974966,42.7494545 L5.10199456,42.7494545 L5.50577687,42.7494545 Z" id="Fill-7" fill="#FFFFFF"></path>
                <polygon id="Fill-9" fill="#FFFFFF" points="1.58091701 48.691132 2.25079456 48.691132 2.25079456 44.4936902 3.78720272 44.4936902 3.78720272 43.9056717 0.0445088435 43.9056717 0.0445088435 44.4936902 1.58091701 44.4936902"></polygon>
                <path d="M10.2094367,46.9269868 L11.1097905,44.6828307 L12.0029605,46.9269868 L10.2094367,46.9269868 Z M10.8257361,43.905881 L8.7478585,48.6910423 L9.49226667,48.6910423 L9.97267483,47.5150053 L12.2469061,47.5150053 L12.7341986,48.6910423 L13.4920762,48.6910423 L11.4345524,43.905881 L10.8257361,43.905881 Z" id="Fill-11" fill="#FFFFFF"></path>
                <path d="M21.2918694,48.0421892 C21.1990803,48.1100489 21.0967129,48.1596733 20.9841687,48.1910622 C20.8713252,48.22275 20.7581823,48.238295 20.6456381,48.238295 C20.4244408,48.238295 20.2191075,48.1862791 20.0296381,48.0828452 C19.8401687,47.9791124 19.6890122,47.8439907 19.576468,47.6771812 L19.0550531,48.1166257 C19.240332,48.3465119 19.473502,48.5201971 19.7554612,48.6370833 C20.0377197,48.7542685 20.3295565,48.8128611 20.6321687,48.8128611 C20.8440871,48.8128611 21.0503184,48.7832659 21.2511619,48.7249722 C21.4520054,48.6663796 21.6292027,48.577295 21.7827537,48.4580172 C21.9357061,48.3384405 22.0590259,48.1874749 22.1515156,48.0051204 C22.2440054,47.8227659 22.2901007,47.6075278 22.2901007,47.359705 C22.2901007,47.1208505 22.2469986,46.9235489 22.1613932,46.7680992 C22.0757878,46.6126495 21.9653388,46.4832077 21.8300463,46.3794749 C21.6947537,46.276041 21.543298,46.1926362 21.3762776,46.1295595 C21.2095565,46.0664828 21.0449306,46.0099828 20.8824,45.9603585 C20.7471075,45.9155172 20.6195973,45.8712738 20.4998694,45.8288241 C20.3804408,45.7857765 20.2765769,45.7337606 20.1885769,45.6730754 C20.1008762,45.6123902 20.0308354,45.5379537 19.9787537,45.4500648 C19.9269714,45.3621759 19.9012299,45.2530622 19.9012299,45.1221257 C19.9012299,44.987004 19.9290667,44.8713135 19.9859374,44.7741574 C20.0419102,44.6773003 20.1152435,44.596287 20.2056381,44.5308188 C20.2960327,44.4656495 20.3963048,44.4184167 20.5067537,44.3888214 C20.6172027,44.3598241 20.7267537,44.3451759 20.8351075,44.3451759 C21.0380463,44.3451759 21.2209306,44.3864299 21.3831619,44.4701336 C21.5456925,44.5532394 21.6741007,44.6602606 21.768985,44.7911971 L22.2428082,44.3314246 C22.0940463,44.1646151 21.8973932,44.0318849 21.6540463,43.9326362 C21.4104,43.8336865 21.1484952,43.7840622 20.8689306,43.7840622 C20.6704816,43.7840622 20.4732299,43.8100701 20.2765769,43.861787 C20.0805224,43.913504 19.9045224,43.995713 19.7488762,44.108414 C19.5932299,44.2211151 19.4666177,44.3628135 19.3696381,44.5344061 C19.2729578,44.7056997 19.224468,44.9104749 19.224468,45.1493294 C19.224468,45.3702474 19.2603864,45.5549934 19.3325224,45.7035675 C19.4046585,45.8524405 19.4995429,45.9773981 19.6168762,46.0787394 C19.7342095,46.1800807 19.8671075,46.2634854 20.0161687,46.3289537 C20.1649306,46.394123 20.3160871,46.4494272 20.4696381,46.4942685 C20.6228898,46.5438929 20.7683592,46.5923214 20.9060463,46.6398532 C21.0437333,46.687086 21.1643592,46.7444828 21.2682231,46.8120437 C21.3720871,46.8796045 21.4544,46.9621124 21.5151619,47.0586706 C21.5762231,47.1558267 21.6067537,47.2760013 21.6067537,47.4203902 C21.6067537,47.5644802 21.5771211,47.6873452 21.5187537,47.7886865 C21.4600871,47.8900278 21.3843592,47.9746283 21.2918694,48.0421892" id="Fill-13" fill="#FFFFFF"></path>
                <polygon id="Fill-15" fill="#FFFFFF" points="33.4637361 48.691132 33.4637361 43.9056717 32.4215048 43.9056717 31.0069197 47.5826558 30.9934503 47.5826558 29.5585116 43.9056717 28.5165796 43.9056717 28.5165796 48.691132 29.1661034 48.691132 29.1661034 44.6894971 29.1795728 44.6894971 30.7635728 48.691132 31.1895048 48.691132 32.7800898 44.6894971 32.7938585 44.6894971 32.7938585 48.691132"></polygon>
                <path d="M39.8728,43.9057315 L39.8728,46.9202606 C39.8728,47.1635992 39.9099156,47.3991653 39.9844463,47.6263611 C40.0586776,47.8541548 40.1727184,48.0559405 40.3262694,48.2317183 C40.4792218,48.407496 40.6734803,48.5479987 40.9081469,48.654123 C41.1425143,48.7596495 41.4178884,48.8128611 41.7339701,48.8128611 C42.0494531,48.8128611 42.3248272,48.7596495 42.5594939,48.654123 C42.7941605,48.5479987 42.9881197,48.407496 43.1416707,48.2317183 C43.2949224,48.0559405 43.4086639,47.8541548 43.4834939,47.6263611 C43.5580245,47.3991653 43.5951401,47.1635992 43.5951401,46.9202606 L43.5951401,43.9057315 L42.9249633,43.9057315 L42.9249633,46.8796045 C42.9249633,47.041631 42.9046095,47.2030595 42.863902,47.3626944 C42.8234939,47.5229272 42.7570449,47.6661204 42.6642558,47.7922738 C42.5720653,47.9184272 42.4487456,48.0197685 42.2957932,48.0965966 C42.1422422,48.1728267 41.954868,48.2110913 41.7339701,48.2110913 C41.508283,48.2110913 41.3197116,48.1728267 41.1685551,48.0965966 C41.0173986,48.0197685 40.8955755,47.9184272 40.8030857,47.7922738 C40.7108952,47.6661204 40.6441469,47.5229272 40.6034395,47.3626944 C40.5630313,47.2030595 40.5426776,47.041631 40.5426776,46.8796045 L40.5426776,43.9057315 L39.8728,43.9057315 Z" id="Fill-17" fill="#FFFFFF"></path>
                <path d="M0.149779592,50.1172638 L43.5948408,50.1172638" id="Stroke-19" stroke="#FFFFFF" stroke-width="0.6" stroke-linecap="round"></path>
                <path d="M0.899246259,55.2950254 C1.00999456,55.461237 1.15187211,55.5835042 1.32428027,55.6624249 C1.49698776,55.7407476 1.67478367,55.7802079 1.85766803,55.7802079 C1.96003537,55.7802079 2.06449796,55.764364 2.17105578,55.7323772 C2.27731429,55.7003905 2.3745932,55.6525598 2.46199456,55.5885862 C2.5490966,55.5249116 2.62033469,55.4462899 2.67600816,55.3524222 C2.73108299,55.2591524 2.75891973,55.1506365 2.75891973,55.0271735 C2.75891973,54.8525915 2.70354558,54.7198614 2.59279728,54.6283852 C2.48174966,54.536909 2.34466122,54.460081 2.18063401,54.3984989 C2.0166068,54.3369169 1.83761361,54.2771286 1.64365442,54.2197317 C1.44999456,54.1623349 1.27100136,54.0822185 1.10697415,53.9802794 C0.942946939,53.8783402 0.805559184,53.7411259 0.694511565,53.5686365 C0.583763265,53.3961471 0.528688435,53.1632714 0.528688435,52.8700095 C0.528688435,52.7378772 0.557423129,52.5976735 0.614892517,52.4488005 C0.672361905,52.2996286 0.763055782,52.1633111 0.88637551,52.0398481 C1.00999456,51.9166841 1.16863401,51.8135492 1.3625932,51.7304434 C1.55625306,51.6473376 1.78972245,51.6060836 2.06240272,51.6060836 C2.3093415,51.6060836 2.54580408,51.639864 2.77179048,51.7083217 C2.99747755,51.7761815 3.19562721,51.9145915 3.36594014,52.1232529 L2.86757279,52.5761497 C2.79094694,52.4571709 2.68229388,52.3615095 2.54161361,52.2888667 C2.40123265,52.2165228 2.2410966,52.1803508 2.06240272,52.1803508 C1.89179048,52.1803508 1.75021224,52.2027714 1.63766803,52.2476127 C1.52452517,52.292155 1.43383129,52.3492529 1.36588571,52.4198032 C1.29764082,52.4897556 1.24974966,52.5653878 1.22191293,52.6464011 C1.19407619,52.7271153 1.18030748,52.8015519 1.18030748,52.8700095 C1.18030748,53.0610333 1.23568163,53.2081127 1.34642993,53.3100519 C1.45717823,53.4122899 1.59486531,53.4950968 1.75889252,53.5590704 C1.92291973,53.622745 2.10191293,53.6804407 2.29587211,53.7315598 C2.48953197,53.7823799 2.66852517,53.853827 2.83255238,53.9450042 C2.99657959,54.0367794 3.13366803,54.1602423 3.24471565,54.3156921 C3.35546395,54.4708429 3.4108381,54.6845862 3.4108381,54.9566233 C3.4108381,55.173954 3.36923265,55.3694619 3.28632109,55.5440439 C3.2031102,55.7186259 3.09116463,55.8654063 2.95078367,55.9843852 C2.8101034,56.103663 2.64398095,56.1951392 2.45211701,56.2591127 C2.26055238,56.3227873 2.05581769,56.3547741 1.83881088,56.3547741 C1.54906939,56.3547741 1.27429388,56.303655 1.01418503,56.2014169 C0.75437551,56.0991788 0.547844898,55.9419354 0.394293878,55.7290889 L0.899246259,55.2950254 Z" id="Fill-21" fill="#FFFFFF"></path>
                <polygon id="Fill-24" fill="#FFFFFF" points="4.27362721 51.7208474 5.18745034 51.7208474 6.62538231 55.1416384 6.65082449 55.1416384 8.07588571 51.7208474 8.98970884 51.7208474 8.98970884 56.2396516 8.37640272 56.2396516 8.37640272 52.5250008 8.36353197 52.5250008 6.83640272 56.2396516 6.42723265 56.2396516 4.89980408 52.5250008 4.88723265 52.5250008 4.88723265 56.2396516 4.27362721 56.2396516"></polygon>
                <path d="M12.6262041,54.5865034 L11.7827211,52.5124452 L11.7698503,52.5124452 L10.9131973,54.5865034 L12.6262041,54.5865034 Z M11.5268027,51.7208474 L12.0832381,51.7208474 L14.0192381,56.2396516 L13.3038639,56.2396516 L12.8497959,55.122805 L10.6961905,55.122805 L10.2490068,56.2396516 L9.53303401,56.2396516 L11.5268027,51.7208474 Z" id="Fill-26" fill="#FFFFFF"></path>
                <path d="M15.2207075,53.7121286 L16.0258776,53.7121286 C16.1453061,53.7121286 16.2632381,53.7028614 16.3805714,53.6834302 C16.4979048,53.6642979 16.602068,53.6293217 16.6939592,53.5782026 C16.785551,53.5270836 16.8588844,53.4538429 16.9142585,53.3578825 C16.9696327,53.2622212 16.9974694,53.1378614 16.9974694,52.9845042 C16.9974694,52.831446 16.9696327,52.7070862 16.9142585,52.6111259 C16.8588844,52.5154646 16.785551,52.4422238 16.6939592,52.3911048 C16.602068,52.3399857 16.4979048,52.3047106 16.3805714,52.2858772 C16.2632381,52.266446 16.1453061,52.2571788 16.0258776,52.2571788 L15.2207075,52.2571788 L15.2207075,53.7121286 Z M14.607102,51.7208772 L16.198585,51.7208772 C16.4880272,51.7208772 16.726585,51.7603376 16.9142585,51.8386603 C17.1016327,51.917581 17.2497959,52.0174275 17.3587483,52.1387979 C17.467102,52.2601683 17.5425306,52.3964857 17.585034,52.5474513 C17.6278367,52.6984169 17.6490884,52.8443005 17.6490884,52.9845042 C17.6490884,53.129491 17.6233469,53.2687979 17.5724626,53.4027238 C17.5215782,53.5366497 17.4479456,53.6580201 17.3521633,53.766536 C17.256381,53.8750519 17.1390476,53.966827 17.0004626,54.0409646 C16.8618776,54.1157 16.7077279,54.1611392 16.5371156,54.1781788 L17.8214966,56.2396815 L17.0549388,56.2396815 L15.9043537,54.2484302 L15.2207075,54.2484302 L15.2207075,56.2396815 L14.607102,56.2396815 L14.607102,51.7208772 Z" id="Fill-28" fill="#FFFFFF"></path>
                <polygon id="Fill-30" fill="#FFFFFF" points="19.3424898 52.2953836 17.8857007 52.2953836 17.8857007 51.7208175 21.4131837 51.7208175 21.4131837 52.2953836 19.9560952 52.2953836 19.9560952 56.2396217 19.3424898 56.2396217"></polygon>
                <path d="M25.8801714,55.665205 C26.1271102,55.665205 26.3542939,55.6197659 26.5608245,55.5282897 C26.7676544,55.4365146 26.9445524,55.310959 27.091219,55.151623 C27.238185,54.9919881 27.3522259,54.8036548 27.4330422,54.586623 C27.5141578,54.3695913 27.5548653,54.1379114 27.5548653,53.8906865 C27.5548653,53.6527288 27.5129605,53.4294193 27.430049,53.2207579 C27.3468381,53.0123955 27.2310014,52.8315357 27.0819401,52.6784775 C26.9325796,52.5251204 26.755981,52.4040489 26.5512463,52.3146653 C26.3468109,52.2249828 26.123219,52.1804405 25.8801714,52.1804405 C25.6416136,52.1804405 25.4213143,52.2249828 25.2189741,52.3146653 C25.0163347,52.4040489 24.840634,52.5251204 24.6915728,52.6784775 C24.5422122,52.8315357 24.4254776,53.0111997 24.3398721,53.2174696 C24.2548653,53.4240384 24.2123619,53.6440595 24.2123619,53.878131 C24.2123619,54.1250569 24.2527701,54.3567368 24.3335864,54.5740675 C24.414702,54.7908003 24.5287429,54.9803294 24.6757088,55.1417579 C24.8226748,55.3037844 24.9983755,55.4314325 25.2028109,55.5247024 C25.4072463,55.6185701 25.6332327,55.665205 25.8801714,55.665205 L25.8801714,55.665205 Z M28.5132871,56.2397712 L25.9059129,56.2397712 C25.5862395,56.2397712 25.2836272,56.1820754 24.9983755,56.0675807 C24.7128245,55.9524881 24.4637905,55.7931521 24.2506748,55.5886759 C24.0375592,55.3844987 23.8693415,55.1408611 23.7457224,54.8580622 C23.6221034,54.5752632 23.5604435,54.2652606 23.5604435,53.92925 C23.5604435,53.5974246 23.6200082,53.2901124 23.7394367,53.0067156 C23.858566,52.7239167 24.0237905,52.4784854 24.2348109,52.270123 C24.445532,52.0611627 24.6924707,51.8985384 24.9759265,51.7813532 C25.2593823,51.6644669 25.567083,51.6061733 25.8993279,51.6061733 C26.2190014,51.6061733 26.5183211,51.6635701 26.7972871,51.7783638 C27.0762531,51.8934563 27.320498,52.0515966 27.5291238,52.2536812 C27.7377497,52.4560648 27.9029741,52.6943214 28.0241986,52.9684511 C28.1457224,53.2428796 28.2064844,53.5418214 28.2064844,53.8652765 C28.2064844,54.0568981 28.1840354,54.2452315 28.1394367,54.4302765 C28.0945388,54.6153214 28.0286884,54.7887077 27.9412871,54.9501362 C27.8538857,55.1121627 27.7452327,55.2568505 27.6153279,55.3844987 C27.4854231,55.5121468 27.3372599,55.614086 27.1711374,55.690914 L27.1711374,55.7034696 L28.5132871,55.7034696 L28.5132871,56.2397712 Z" id="Fill-32" fill="#FFFFFF"></path>
                <path d="M31.6765878,54.5865034 L30.8331048,52.5124452 L30.820234,52.5124452 L29.963581,54.5865034 L31.6765878,54.5865034 Z M30.5771864,51.7208474 L31.1336218,51.7208474 L33.0696218,56.2396516 L32.3539483,56.2396516 L31.9001796,55.122805 L29.7465741,55.122805 L29.2993905,56.2396516 L28.5834177,56.2396516 L30.5771864,51.7208474 Z" id="Fill-34" fill="#FFFFFF"></path>
                <polygon id="Fill-36" fill="#FFFFFF" points="34.0152925 52.2953836 32.5585034 52.2953836 32.5585034 51.7208175 36.0859864 51.7208175 36.0859864 52.2953836 34.628898 52.2953836 34.628898 56.2396217 34.0152925 56.2396217"></polygon>
                <path d="M38.6679184,54.5865034 L37.8244354,52.5124452 L37.8115646,52.5124452 L36.9549116,54.5865034 L38.6679184,54.5865034 Z M37.568517,51.7208474 L38.1249524,51.7208474 L40.0609524,56.2396516 L39.3452789,56.2396516 L38.8915102,55.122805 L36.7379048,55.122805 L36.2907211,56.2396516 L35.5747483,56.2396516 L37.568517,51.7208474 Z" id="Fill-38" fill="#FFFFFF"></path>
                <path d="M41.2623918,53.7121286 L42.0675619,53.7121286 C42.1869905,53.7121286 42.3049224,53.7028614 42.4222558,53.6834302 C42.5395891,53.6642979 42.6437524,53.6293217 42.7356435,53.5782026 C42.8272354,53.5270836 42.9005687,53.4538429 42.9559429,53.3578825 C43.011317,53.2622212 43.0391537,53.1378614 43.0391537,52.9845042 C43.0391537,52.831446 43.011317,52.7070862 42.9559429,52.6111259 C42.9005687,52.5154646 42.8272354,52.4422238 42.7356435,52.3911048 C42.6437524,52.3399857 42.5395891,52.3047106 42.4222558,52.2858772 C42.3049224,52.266446 42.1869905,52.2571788 42.0675619,52.2571788 L41.2623918,52.2571788 L41.2623918,53.7121286 Z M40.6487864,51.7208772 L42.2402694,51.7208772 C42.5297116,51.7208772 42.7682694,51.7603376 42.9559429,51.8386603 C43.143317,51.917581 43.2914803,52.0174275 43.4001333,52.1387979 C43.5087864,52.2601683 43.584215,52.3964857 43.6267184,52.5474513 C43.6695211,52.6984169 43.6907728,52.8443005 43.6907728,52.9845042 C43.6907728,53.129491 43.6650313,53.2687979 43.6141469,53.4027238 C43.5632626,53.5366497 43.4896299,53.6580201 43.3938476,53.766536 C43.2980653,53.8750519 43.180732,53.966827 43.0421469,54.0409646 C42.9035619,54.1157 42.7494122,54.1611392 42.5788,54.1781788 L43.863181,56.2396815 L43.0966231,56.2396815 L41.9460381,54.2484302 L41.2623918,54.2484302 L41.2623918,56.2396815 L40.6487864,56.2396815 L40.6487864,51.7208772 Z" id="Fill-40" fill="#FFFFFF"></path>
            </g>
        </g>
    </g>
</svg>