<?xml version="1.0" encoding="UTF-8"?>
<svg width="88px" height="31px" viewBox="0 0 88 31" version="1.1" xmlns="http://www.w3.org/2000/svg" xmlns:xlink="http://www.w3.org/1999/xlink">
    <!-- Generator: sketchtool 42 (36781) - http://www.bohemiancoding.com/sketch -->
    <title>6115E6CA-11D8-45B0-9E64-9F3A817A9D86</title>
    <desc>Created with sketchtool.</desc>
    <defs>
        <polygon id="path-1" points="3.452 3.15824266 3.452 0.0442707535 0.108072727 0.0442707535 0.108072727 3.15824266 3.452 3.15824266"></polygon>
        <polygon id="path-3" points="30.9681818 0.193818646 0.000181818182 0.193818646 0.000181818182 30.6479847 30.9681818 30.6479847 30.9681818 0.193818646"></polygon>
    </defs>
    <g id="Desktop" stroke="none" stroke-width="1" fill="none" fill-rule="evenodd">
        <g id="Other" transform="translate(-126.000000, -1356.000000)">
            <g id="LOGO_VB" transform="translate(126.000000, 1356.000000)">
                <g id="Group-3" transform="translate(84.363636, 1.594105)">
                    <mask id="mask-2" fill="white">
                        <use xlink:href="#path-1"></use>
                    </mask>
                    <g id="Clip-2"></g>
                    <path d="M1.75970909,3.15824266 C2.2328,3.15824266 2.63316364,3.00590549 2.9608,2.70194636 C3.28843636,2.39762963 3.45207273,2.03073308 3.45207273,1.6012567 C3.45207273,1.17142273 3.28843636,0.80488378 2.9608,0.50056705 C2.63316364,0.196250319 2.2328,0.0442707535 1.75970909,0.0442707535 C1.28625455,0.0442707535 0.895345455,0.196250319 0.585527273,0.50056705 C0.267345455,0.80488378 0.108072727,1.17142273 0.108072727,1.6012567 C0.108072727,2.03073308 0.267345455,2.39762963 0.585527273,2.70194636 C0.895345455,3.00590549 1.28625455,3.15824266 1.75970909,3.15824266" id="Fill-1" fill="#000000" mask="url(#mask-2)"></path>
                </g>
                <path d="M82.2469091,4.75234738 C82.72,4.75234738 83.1112727,4.60001022 83.4207273,4.29605109 C83.7392727,3.99173436 83.8985455,3.6248378 83.8985455,3.19536143 C83.8985455,2.76552746 83.7392727,2.39898851 83.4207273,2.09467178 C83.1112727,1.79035504 82.72,1.63837548 82.2469091,1.63837548 C81.7734545,1.63837548 81.3734545,1.79035504 81.0458182,2.09467178 C80.7181818,2.39898851 80.5545455,2.76552746 80.5545455,3.19536143 C80.5545455,3.6248378 80.7181818,3.99173436 81.0458182,4.29605109 C81.3734545,4.60001022 81.7734545,4.75234738 82.2469091,4.75234738" id="Fill-4" fill="#000000"></path>
                <path d="M40.9983636,16.1214917 C40.034,16.0767918 39.1969091,15.7052465 38.4870909,15.0075709 C37.7772727,14.3095377 37.4176364,13.4502273 37.4089091,12.430355 L37.4089091,12.4035351 C37.4089091,11.3471877 37.7772727,10.4614151 38.5143636,9.74550192 C39.2514545,9.02958876 40.1205455,8.667341 41.1212727,8.65840102 L41.2852727,8.65840102 C42.2405455,8.69380332 43.0685455,9.04317752 43.7692727,9.70545083 C44.4972727,10.4481839 44.8612727,11.3471877 44.8612727,12.4035351 L44.8612727,16.1214917 L40.9983636,16.1214917 Z M54.7572727,10.6584521 C55.4849091,9.94253895 56.3583636,9.57993359 57.3776364,9.57135121 C58.3969091,9.57993359 59.2703636,9.94253895 59.9983636,10.6584521 C60.7263636,11.3743653 61.0950909,12.2554891 61.1041818,13.302539 C61.0950909,14.3495888 60.7354545,15.2221303 60.0256364,15.9201635 C59.3158182,16.6181967 58.4834545,16.9893844 57.5278182,17.0344419 L56.9274545,17.007622 C56.09,16.9089246 55.3350909,16.5287969 54.6612727,15.8665236 C53.9881818,15.2042503 53.6514545,14.3495888 53.6514545,13.302539 C53.6605455,12.2554891 54.0292727,11.3743653 54.7572727,10.6584521 L54.7572727,10.6584521 Z M41.2161818,22.5911724 C42.9412727,22.5911724 44.4129091,22.0004189 45.6296364,20.8196271 C46.4289091,20.0321941 46.9372727,19.2039949 47.1558182,18.3361022 L48.0823636,18.3361022 L49.3107273,18.3361022 L53.938,18.3361022 C54.8569091,18.9268557 56.2129091,19.2222324 58.0056364,19.2222324 C59.0612727,19.1238927 59.9896364,18.8281584 60.7903636,18.3361022 L63.6838182,18.3361022 L64.9394545,18.3361022 L79.5307273,18.3361022 L80.7456364,18.3361022 L87.5292727,18.3361022 L87.5292727,6.28251341 L85.1405455,6.28251341 L85.1405455,16.1214917 L80.7456364,16.1214917 L79.5307273,16.1214917 L79.1212727,16.1214917 L79.1212727,9.7497931 L76.7329091,9.7497931 L76.7329091,16.1214917 L73.7161818,16.1214917 L73.7161818,9.70831162 L71.3274545,9.70831162 L71.3274545,16.1214917 L68.966,16.1214917 L68.966,9.75479949 L66.5776364,9.75479949 L66.5776364,16.1214917 L64.9394545,16.1214917 L63.6838182,16.1214917 L62.8649091,16.1214917 C63.3198182,15.4323985 63.5474545,14.4883372 63.5474545,13.2893078 C63.5474545,11.6021558 62.9467273,10.1606743 61.7456364,8.96343295 C60.5445455,7.76690677 59.0838182,7.16864368 57.3641818,7.16864368 C55.6263636,7.16864368 54.1565455,7.76690677 52.9554545,8.96343295 C51.754,10.1606743 51.1536364,11.6021558 51.1536364,13.2893078 C51.1536364,14.4883372 51.3856364,15.4323985 51.85,16.1214917 L49.3107273,16.1214917 L48.0823636,16.1214917 L47.3590909,16.1214917 L47.3590909,12.2958978 C47.35,10.6312746 46.7543636,9.21768582 45.5729091,8.05405875 C44.3910909,6.89114687 42.9641818,6.29145338 41.2918182,6.25569349 L41.142,6.25569349 C39.4238182,6.25569349 37.9649091,6.846447 36.7649091,8.02759642 C35.5652727,9.20874585 34.9652727,10.6312746 34.9652727,12.2958978 L34.9652727,12.430355 C35.0107273,14.0231009 35.6070909,15.3919898 36.7536364,16.5373793 C37.8998182,17.6827688 39.2787273,18.2824623 40.8892727,18.3361022 L44.438,18.3361022 C44.3470909,18.5749783 44.1198182,18.8782222 43.7558182,19.245834 C43.0092727,19.9996526 42.1223636,20.3762043 41.094,20.3762043 L40.7256364,20.3762043 L34.7089091,20.3762043 L34.7089091,22.5911724 L40.7256364,22.5911724 L41.2161818,22.5911724 Z" id="Fill-6" fill="#000000"></path>
                <polygon id="Fill-8" fill="#000000" points="36.4475636 30.7715351 37.2617455 30.7715351 37.2617455 25.7504879 39.1279273 25.7504879 39.1279273 25.0470907 34.5813818 25.0470907 34.5813818 25.7504879 36.4475636 25.7504879"></polygon>
                <path d="M46.9305091,28.6615581 L48.0243273,25.9770626 L49.1094182,28.6615581 L46.9305091,28.6615581 Z M47.6788727,25.0473052 L45.1545091,30.7713921 L46.0592364,30.7713921 L46.6428727,29.3649553 L49.4057818,29.3649553 L49.9977818,30.7713921 L50.9185091,30.7713921 L48.4188727,25.0473052 L47.6788727,25.0473052 Z" id="Fill-10" fill="#000000"></path>
                <path d="M60.3942909,29.9955811 C60.2815636,30.0763985 60.1572,30.1357599 60.0201091,30.1733078 C59.8830182,30.2112133 59.7459273,30.2298084 59.6092,30.2298084 C59.3404727,30.2298084 59.0910182,30.1679438 58.8608364,30.0442146 C58.6302909,29.9201277 58.4470182,29.758493 58.3102909,29.5585951 L57.6768364,30.0842656 C57.9015636,30.3596169 58.1852,30.5670243 58.5277455,30.7068455 C58.8706545,30.8470243 59.2252,30.9171137 59.5924727,30.9171137 C59.8502909,30.9171137 60.1008364,30.882069 60.3448364,30.8119796 C60.5884727,30.7422478 60.8037455,30.6356833 60.9902909,30.4930013 C61.1764727,30.3499617 61.3262909,30.1690166 61.4382909,29.9508812 C61.5506545,29.7327458 61.6070182,29.4752746 61.6070182,29.178825 C61.6070182,28.8931034 61.5546545,28.6574457 61.4506545,28.4711367 C61.3466545,28.2855428 61.2124727,28.1303448 61.0481091,28.0066156 C60.8837455,27.8825287 60.6997455,27.7831162 60.4968364,27.7073052 C60.2942909,27.6318519 60.0942909,27.5642656 59.8968364,27.5049042 C59.7324727,27.4512644 59.5775636,27.3986973 59.4321091,27.3475607 C59.2870182,27.296424 59.1608364,27.2342018 59.0539273,27.1612516 C58.9473818,27.088659 58.8619273,26.9996169 58.7990182,26.8944828 C58.7361091,26.7893487 58.7048364,26.6591826 58.7048364,26.5025543 C58.7048364,26.3409195 58.7386545,26.2021711 58.8073818,26.0859515 C58.8757455,25.9700894 58.9648364,25.8735377 59.0746545,25.7952235 C59.1841091,25.7169093 59.3062909,25.6604087 59.4404727,25.6250064 C59.5746545,25.5903193 59.7077455,25.5727969 59.8393818,25.5727969 C60.0859273,25.5727969 60.3081091,25.6225032 60.5052,25.7222733 C60.7026545,25.8220434 60.8586545,25.9500639 60.9739273,26.1063346 L61.5495636,25.556705 C61.3684727,25.3571648 61.1299273,25.1980332 60.8339273,25.0796679 C60.5382909,24.9609451 60.2201091,24.9015837 59.8804727,24.9015837 C59.6390182,24.9015837 59.3993818,24.9326948 59.1608364,24.9945594 C58.9222909,25.056424 58.7084727,25.1551213 58.5197455,25.2899361 C58.3302909,25.424751 58.1768364,25.5942529 58.0590182,25.7991571 C57.9412,26.0040613 57.8826545,26.2490166 57.8826545,26.5347382 C57.8826545,26.7993614 57.9262909,27.02 58.0139273,27.1980843 C58.1015636,27.375811 58.2168364,27.5252874 58.3590182,27.646871 C58.5019273,27.7680971 58.6633818,27.8678672 58.8444727,27.9458238 C59.0252,28.0237803 59.2088364,28.0899361 59.3953818,28.1439336 C59.5815636,28.203295 59.7582909,28.2608685 59.9255636,28.3180843 C60.0928364,28.3742273 60.2390182,28.4428863 60.3655636,28.5240613 C60.4917455,28.6045211 60.5917455,28.7032184 60.6655636,28.8190805 C60.7393818,28.9349425 60.7768364,29.0790549 60.7768364,29.2517752 C60.7768364,29.4241379 60.7408364,29.5711111 60.6695636,29.6923372 C60.5986545,29.8135632 60.5066545,29.9144061 60.3942909,29.9955811" id="Fill-12" fill="#000000"></path>
                <polygon id="Fill-14" fill="#000000" points="75.1812364 30.7715351 75.1812364 25.0470907 73.9154182 25.0470907 72.1968727 29.4455581 72.1805091 29.4455581 70.4372364 25.0470907 69.1710545 25.0470907 69.1710545 30.7715351 69.9605091 30.7715351 69.9605091 25.9850728 69.9768727 25.9850728 71.9008727 30.7715351 72.4186909 30.7715351 74.3510545 25.9850728 74.3674182 25.9850728 74.3674182 30.7715351"></polygon>
                <path d="M82.9674545,25.0471622 L82.9674545,28.6531903 C82.9674545,28.9442759 83.0129091,29.2264215 83.1034545,29.4981967 C83.1936364,29.7703295 83.3321818,30.0117088 83.5187273,30.221977 C83.7045455,30.4322452 83.9405455,30.6006743 84.2256364,30.7272644 C84.5103636,30.8538544 84.8449091,30.9171494 85.2289091,30.9171494 C85.6121818,30.9171494 85.9467273,30.8538544 86.2318182,30.7272644 C86.5169091,30.6006743 86.7525455,30.4322452 86.9390909,30.221977 C87.1252727,30.0117088 87.2634545,29.7703295 87.354,29.4981967 C87.4445455,29.2264215 87.49,28.9442759 87.49,28.6531903 L87.49,25.0471622 L86.6758182,25.0471622 L86.6758182,28.6045568 C86.6758182,28.7987331 86.6510909,28.9914789 86.6016364,29.1827944 C86.5521818,29.3744674 86.4714545,29.5453997 86.3590909,29.6963065 C86.2470909,29.8472133 86.0972727,29.9687969 85.9110909,30.0603423 C85.7245455,30.15153 85.4972727,30.1976603 85.2289091,30.1976603 C84.9547273,30.1976603 84.7256364,30.15153 84.542,30.0603423 C84.3583636,29.9687969 84.2103636,29.8472133 84.098,29.6963065 C83.9856364,29.5453997 83.9049091,29.3744674 83.8554545,29.1827944 C83.8063636,28.9914789 83.7816364,28.7987331 83.7816364,28.6045568 L83.7816364,25.0471622 L82.9674545,25.0471622 Z" id="Fill-16" fill="#000000"></path>
                <g id="Group-20" transform="translate(0.000000, 0.163709)">
                    <mask id="mask-4" fill="white">
                        <use xlink:href="#path-3"></use>
                    </mask>
                    <g id="Clip-19"></g>
                    <path d="M2.87690909,18.1763627 L2.88018182,18.1763627 L2.88018182,10.794447 L7.50963636,10.794447 L7.50963636,20.0441022 L2.87690909,20.0441022 L2.87690909,18.1763627 Z M2.88018182,7.575341 L7.50963636,7.575341 L7.50963636,3.0227484 L2.88018182,3.0227484 L2.88018182,7.575341 Z M10.7830909,20.0437446 L20.1849091,20.0437446 L20.1849091,10.794447 L10.7830909,10.794447 L10.7830909,20.0437446 Z M10.7830909,3.0227484 L12.6823636,3.0227484 L12.6823636,3.02632439 L20.1885455,3.02632439 L20.1885455,7.575341 L10.7830909,7.575341 L10.7830909,3.0227484 Z M23.4590909,27.8186616 L28.0881818,27.8186616 L28.0881818,23.2664266 L23.4590909,23.2664266 L23.4590909,27.8186616 Z M1.43836364,30.6447663 C2.23290909,30.6447663 2.87690909,30.0114585 2.87690909,29.2301047 L2.87690909,23.2632082 L7.55363636,23.2632082 L7.55363636,23.2664266 L20.1852727,23.2664266 L20.1852727,27.8190192 L14.1172727,27.8190192 C13.3230909,27.8190192 12.6790909,28.4523269 12.6790909,29.2336807 C12.6790909,30.0146769 13.3230909,30.6479847 14.1172727,30.6479847 L28.0881818,30.6479847 L29.5263636,30.6479847 C30.3212727,30.6479847 30.9649091,30.0146769 30.9649091,29.2336807 L30.9649091,27.8190192 L30.9649091,14.0800664 C30.9649091,13.2987126 30.3212727,12.6657625 29.5263636,12.6657625 C28.7321818,12.6657625 28.0881818,13.2987126 28.0881818,14.0800664 L28.0881818,20.046963 L23.462,20.046963 L23.462,3.02632439 L29.53,3.02632439 C30.3241818,3.02632439 30.9681818,2.392659 30.9681818,1.61166284 C30.9681818,0.830309068 30.3241818,0.197358876 29.53,0.197358876 L18.2892727,0.197358876 L18.2892727,0.193782886 L2.88018182,0.193782886 L1.442,0.193782886 C0.647454545,0.193782886 0.00345454545,0.827090677 0.00345454545,1.60844444 L0.00345454545,3.0227484 L0.00345454545,12.6621865 L0.000181818182,12.6621865 L0.000181818182,29.2301047 C0.000181818182,30.0114585 0.643818182,30.6447663 1.43836364,30.6447663 L1.43836364,30.6447663 Z" id="Fill-18" fill="#000000" mask="url(#mask-4)"></path>
                </g>
            </g>
        </g>
    </g>
</svg>