<?xml version="1.0" encoding="UTF-8" standalone="no"?>
<svg width="10px" height="15px" viewBox="0 0 10 15" version="1.1" xmlns="http://www.w3.org/2000/svg" xmlns:xlink="http://www.w3.org/1999/xlink">
    <!-- Generator: Sketch 42 (36781) - http://www.bohemiancoding.com/sketch -->
    <title>mouse wireless 1</title>
    <desc>Created with Sketch.</desc>
    <defs></defs>
    <g id="Desktop" stroke="none" stroke-width="1" fill="none" fill-rule="evenodd" opacity="0.5">
        <g id="320-a-Use-Case" transform="translate(-43.000000, -538.000000)" fill="#121212">
            <g id="Group-4" transform="translate(24.000000, 0.000000)">
                <g id="Group-2" transform="translate(19.000000, 538.000000)">
                    <path d="M5.9375,4.6875 C5.9375,5.204375 5.51625,5.625 5,5.625 C4.483125,5.625 4.0625,5.204375 4.0625,4.6875 L4.0625,3.4375 C4.0625,2.920625 4.483125,2.5 5,2.5 C5.51625,2.5 5.9375,2.920625 5.9375,3.4375 L5.9375,4.6875 Z M5.9375,0 L4.0625,0 C1.8225,0 0,1.821875 0,4.0625 L0,10.9375 C0,13.1775 1.8225,15 4.0625,15 L5.9375,15 C8.1775,15 10,13.1775 10,10.9375 L10,4.0625 C10,1.821875 8.1775,0 5.9375,0 L5.9375,0 Z" id="mouse-wireless-1"></path>
                </g>
            </g>
        </g>
    </g>
</svg>