<?xml version="1.0" encoding="UTF-8" standalone="no"?>
<svg width="507px" height="722px" viewBox="0 0 507 722" version="1.1" xmlns="http://www.w3.org/2000/svg" xmlns:xlink="http://www.w3.org/1999/xlink">
    <!-- Generator: sketchtool 42 (36781) - http://www.bohemiancoding.com/sketch -->
    <title>D55DCD5E-0790-44E7-86B8-5B6E1B8ACA3C</title>
    <desc>Created with sketchtool.</desc>
    <defs>
        <rect id="path-1" x="0" y="0" width="579" height="733"></rect>
    </defs>
    <g id="Desktop" stroke="none" stroke-width="1" fill="none" fill-rule="evenodd">
        <g id="1440-b-Use-Case" transform="translate(-933.000000, -1700.000000)">
            <g id="Group-12" transform="translate(861.000000, 1700.000000)">
                <mask id="mask-2" fill="white">
                    <use xlink:href="#path-1"></use>
                </mask>
                <g id="Rectangle-2"></g>
                <path d="M229.199132,387.344897 L229.25849,387.344897 L229.25849,252.092146 L313.223382,252.092146 L313.223382,421.565946 L229.199132,421.565946 L229.199132,387.344897 Z M229.25849,193.111122 L313.223382,193.111122 L313.223382,109.697724 L229.25849,109.697724 L229.25849,193.111122 Z M372.594362,421.559394 L543.116102,421.559394 L543.116102,252.092146 L372.594362,252.092146 L372.594362,421.559394 Z M372.594362,109.697724 L407.041666,109.697724 L407.041666,109.763244 L543.182055,109.763244 L543.182055,193.111122 L372.594362,193.111122 L372.594362,109.697724 Z M602.500273,564.012783 L686.458569,564.012783 L686.458569,480.605937 L602.500273,480.605937 L602.500273,564.012783 Z M203.108086,615.793168 C217.518838,615.793168 229.199132,604.189592 229.199132,589.873492 L229.199132,480.546969 L314.021414,480.546969 L314.021414,480.605937 L543.122697,480.605937 L543.122697,564.019335 L433.066759,564.019335 C418.662602,564.019335 406.982308,575.622911 406.982308,589.939012 C406.982308,604.24856 418.662602,615.852136 433.066759,615.852136 L686.458569,615.852136 L712.54302,615.852136 C726.960368,615.852136 738.634067,604.24856 738.634067,589.939012 L738.634067,564.019335 L738.634067,312.291839 C738.634067,297.975739 726.960368,286.378715 712.54302,286.378715 C698.138863,286.378715 686.458569,297.975739 686.458569,312.291839 L686.458569,421.618362 L602.553036,421.618362 L602.553036,109.763244 L712.608973,109.763244 C727.01313,109.763244 738.693424,98.153116 738.693424,83.8435675 C738.693424,69.5274671 727.01313,57.9304429 712.608973,57.9304429 L508.734751,57.9304429 L508.734751,57.864923 L229.25849,57.864923 L203.174039,57.864923 C188.763287,57.864923 177.082993,69.4684992 177.082993,83.7845996 L177.082993,109.697724 L177.082993,286.313195 L177.023635,286.313195 L177.023635,589.873492 C177.023635,604.189592 188.697334,615.793168 203.108086,615.793168 L203.108086,615.793168 Z" id="Fill-18" fill="#FFFFFF" opacity="0.05" mask="url(#mask-2)" transform="translate(457.858530, 336.858530) rotate(-315.000000) translate(-457.858530, -336.858530) "></path>
            </g>
        </g>
    </g>
</svg>