<svg width="100" height="56" viewBox="0 0 100 56" xmlns="http://www.w3.org/2000/svg"><title>noun_791572_cc</title><path d="M96.867 4.382a319.51 319.51 0 0 0-93.734 0C1.402 4.644.001 6.278 0 8.011v40.441c.001 1.732 1.4 3.367 3.133 3.631a319.932 319.932 0 0 0 29.674 2.991c1.93-5.118 7.398-16.776 17.19-16.776 9.79 0 15.265 11.658 17.196 16.776a319.932 319.932 0 0 0 29.674-2.991c1.731-.264 3.133-1.898 3.133-3.631V8.011c0-1.733-1.402-3.367-3.133-3.629zM23.34 35.008c-5.498 0-9.955-4.457-9.955-9.955s4.457-9.956 9.955-9.956 9.955 4.458 9.955 9.956c0 5.498-4.457 9.955-9.955 9.955zm53.32 0c-5.498 0-9.955-4.457-9.955-9.955s4.457-9.956 9.955-9.956 9.955 4.458 9.955 9.956c0 5.498-4.457 9.955-9.955 9.955z"/></svg>