<svg width="57" height="64" viewBox="0 0 57 64" xmlns="http://www.w3.org/2000/svg"><title>Group 2</title><path d="M28.41 20.39c-4.453 0-8.074 3.622-8.074 8.075 0 4.45 3.621 8.074 8.074 8.074 4.45 0 8.074-3.621 8.074-8.074 0-4.453-3.625-8.074-8.074-8.074zm0 11.462a3.39 3.39 0 0 1-3.387-3.387 3.39 3.39 0 0 1 3.387-3.387 3.39 3.39 0 0 1 3.387 3.387 3.39 3.39 0 0 1-3.387 3.387z"/><path d="M37.742 43.8c5.399-3.288 8.617-9.019 8.617-15.335 0-9.895-8.05-17.95-17.96-17.95l-.329.005c-9.875 0-17.61 7.882-17.61 17.945 0 6.316 3.224 12.047 8.618 15.336a1.556 1.556 0 0 0 2.149-.52c.449-.738.218-1.699-.52-2.148-4.457-2.719-7.121-7.453-7.121-12.668 0-8.309 6.363-14.82 14.5-14.82l.328-.004c8.172 0 14.824 6.648 14.824 14.824 0 5.215-2.66 9.95-7.12 12.668a1.562 1.562 0 0 0 1.624 2.668z"/><path d="M28.813.86h-.805C12.785.86.402 13.241.402 28.464c0 9.605 4.875 18.375 13.04 23.453a1.56 1.56 0 0 0 2.152-.504c.457-.73.23-1.695-.5-2.152-7.242-4.504-11.567-12.278-11.57-20.797 0-13.5 10.984-24.48 24.48-24.48h.808c13.497 0 24.477 10.98 24.477 24.48 0 8.52-4.324 16.293-11.566 20.797a1.564 1.564 0 0 0 1.652 2.656c8.164-5.078 13.04-13.848 13.043-23.453C56.418 13.246 44.031.859 28.813.859z"/><path d="M30.113 41.898c-.851-1.91-2.261-1.918-3.133-.015l-8.832 17.703c-.87 1.906.336 3.46 2.684 3.46h15.133c2.344 0 3.57-1.562 2.719-3.472l-8.57-17.676z"/></svg>