<svg xmlns="http://www.w3.org/2000/svg" width="24" height="24" viewBox="0 0 24 24"><g stroke="#000" stroke-linecap="round" stroke-linejoin="round" stroke-miterlimit="10"><path d="M20.5 12a2.5 2.5 0 0 1-2.5 2.5H3a2.5 2.5 0 1 1 0-5h15a2.5 2.5 0 0 1 2.5 2.5zM10.5 6.5v-4M13.329 6.8l.838-3.911M16.032 7.686l1.639-3.649M7.671 6.8l-.838-3.911M4.968 7.686L3.329 4.037M10.5 17.5v4M13.329 17.2l.838 3.911M16.032 16.314l1.639 3.649M7.671 17.2l-.838 3.911M4.968 16.314l-1.639 3.649M3.5 9.5v5M17.5 9.5v5"/></g><path fill="none" d="M0 0h24v24H0z"/></svg>