<svg width="80" height="84" viewBox="0 0 80 84" xmlns="http://www.w3.org/2000/svg"><title>Group</title><path d="M77.375 37.5L79.8 34l-15-10.9-2.7 3.7-16.8-13.9C45.2 7.6 41.8 2.8 36.5 1c-6.7-2.2-13.8 1.5-16 8.1-1.3 3.9-.5 8 1.7 11.2L13.4 64C5.6 67.1.1 74.6.1 83.5H42c0-6.9-3.3-13-8.5-16.8l3-41.5c1.3-.4 2.5-1.1 3.7-1.9L57 33.8l-2.7 3.7 15 10.9 2.357-3.196L59.7 36.6l5.9-8.1 11.775 9zM26 11c1.2-3.7 5.1-5.7 8.8-4.5 3.7 1.2 5.7 5.1 4.5 8.8-.5 1.4-1.4 2.6-2.5 3.5-1.8 1.3-4.1 1.7-6.3 1-3.7-1.2-5.7-5.1-4.5-8.8z"/></svg>