<svg xmlns="http://www.w3.org/2000/svg" width="24" height="24" viewBox="0 0 24 24"><path d="M3.5 12.5A.5.5 0 0 0 4 12V8h8.092A1.483 1.483 0 0 1 12 7.5V4H.5a.5.5 0 0 0-.5.5v3a.5.5 0 0 0 .5.5H3v3.559c-1.036.248-1.812 1.248-1.812 2.441 0 1.332 1.256 2.5 2.688 2.5 1.353 0 2.375-1.075 2.375-2.5a.5.5 0 0 0-1 0c0 .869-.578 1.5-1.375 1.5-.884 0-1.688-.715-1.688-1.5 0-.827.588-1.5 1.312-1.5zM23.5 4H22v3.5c0 .176-.036.343-.092.5H23.5a.5.5 0 0 0 .5-.5v-3a.5.5 0 0 0-.5-.5zM15 23.5a.5.5 0 0 0 .5.5h4a.5.5 0 0 0 .5-.5V9h-5v14.5zM12.5 18H.5a.5.5 0 0 0-.5.5v5a.5.5 0 0 0 .5.5h12a.5.5 0 0 0 .5-.5v-5a.5.5 0 0 0-.5-.5zM20.362.02l-7 2A.498.498 0 0 0 13 2.5v5a.5.5 0 0 0 .5.5h7a.5.5 0 0 0 .5-.5v-7a.5.5 0 0 0-.638-.48zM17.521 6H15.5a.5.5 0 0 1-.5-.5V4c0-.23.156-.43.379-.485l2-.5A.5.5 0 0 1 18 3.5v1.859a.5.5 0 0 1-.479.641z"/><g><path fill="none" d="M0 0h24v24H0z"/></g></svg>