<svg xmlns="http://www.w3.org/2000/svg" width="24" height="24" viewBox="0 0 24 24"><path d="M22.825 12l-3.868-8.703A.5.5 0 0 0 18.5 3h-13a.5.5 0 0 0-.457.297L1.175 12h21.65zM22.09 16H1.91l-.516 3.09A2.501 2.501 0 0 0 3.86 22h16.278a2.498 2.498 0 0 0 2.466-2.91L22.09 16zM11 19.5a.5.5 0 0 1-.5.5h-6a.5.5 0 0 1-.5-.5v-2a.5.5 0 0 1 .5-.5h6a.5.5 0 0 1 .5.5v2zm4.458 0a1.001 1.001 0 0 1 0-2 1.001 1.001 0 0 1 0 2zm3 0a1.001 1.001 0 0 1 0-2 1.001 1.001 0 0 1 0 2zM1.14 13c.4 1.203.426 1.483.824 2h20.072c.399-.517.424-.797.824-2H1.14z"/><g><path fill="none" d="M0 0h24v24H0z"/></g></svg>