<svg width="62" height="46" viewBox="0 0 62 46" xmlns="http://www.w3.org/2000/svg"><title>Group 2</title><circle cx="31.5" cy="23" r="7.7"/><path d="M20.8 8.4c-1.1-1.1-2.8-1.1-3.9 0-8 8-8 21.1 0 29.2.5.5 1.2.8 1.9.8s1.4-.3 1.9-.8c1.1-1.1 1.1-2.8 0-3.9-5.9-5.9-5.9-15.5 0-21.4 1.1-1.1 1.1-2.8.1-3.9zM46.1 8.4c-1.1-1.1-2.8-1.1-3.9 0s-1.1 2.8 0 3.9c5.9 5.9 5.9 15.5 0 21.4-1.1 1.1-1.1 2.8 0 3.9.5.5 1.2.8 1.9.8s1.4-.3 1.9-.8c8.1-8.1 8.1-21.1.1-29.2z"/><path d="M49.2 1.4c-1.1 1.1-1.1 2.8 0 3.9C59 15 59 31 49.2 40.8c-1.1 1.1-1.1 2.8 0 3.9.5.5 1.2.8 1.9.8s1.4-.3 1.9-.8c12-12 12-31.4.1-43.3-1.1-1.1-2.8-1.1-3.9 0zM13.7 5.2c1.1-1.1 1.1-2.8 0-3.9s-2.8-1.1-3.9 0c-11.9 11.9-11.9 31.3 0 43.3.5.5 1.2.8 1.9.8s1.4-.3 1.9-.8c1.1-1.1 1.1-2.8 0-3.9C3.9 31 3.9 15 13.7 5.2z"/></svg>