<svg xmlns="http://www.w3.org/2000/svg" width="24" height="24" viewBox="0 0 24 24"><path d="M21.139 2.867C19.822 1.551 18.064.826 16.189.826s-3.633.725-4.949 2.041L6.936 7.171h-.001L2.047 12.06a7.006 7.006 0 0 0 0 9.899 6.977 6.977 0 0 0 4.95 2.047 6.975 6.975 0 0 0 4.949-2.047l4.742-4.742.001-.001 4.449-4.449a7.008 7.008 0 0 0 .001-9.9zm-9.9 18.385a6.006 6.006 0 0 1-8.485 0 6.005 6.005 0 0 1 0-8.485l4.242-4.243 8.485 8.486-4.242 4.242zm7.779-15.556a.502.502 0 0 1-.707 0 3.502 3.502 0 0 0-4.95 0l-2.12 2.121a.498.498 0 0 1-.707 0 .502.502 0 0 1 0-.708l2.12-2.121a4.506 4.506 0 0 1 6.364 0 .502.502 0 0 1 0 .708z"/><path fill="none" d="M0 0h24v24H0z"/></svg>