<svg xmlns="http://www.w3.org/2000/svg" width="24" height="24" viewBox="0 0 24 24"><path d="M11 3.5a8.45 8.45 0 0 1 4 1.004V.5a.5.5 0 0 0-.5-.5h-7a.5.5 0 0 0-.5.5v4.004A8.45 8.45 0 0 1 11 3.5zM11 20.5a8.45 8.45 0 0 1-4-1.004V23.5a.5.5 0 0 0 .5.5h7a.5.5 0 0 0 .5-.5v-4.004a8.45 8.45 0 0 1-4 1.004z"/><g><path d="M7.1 10.2a.5.5 0 0 1 .816.023l1.522 2.283 2.115-4.23a.5.5 0 0 1 .928.086l1.646 5.765.925-1.851A.503.503 0 0 1 15.5 12h3c0-4.136-3.364-7.5-7.5-7.5S3.5 7.864 3.5 12h2.25l1.35-1.8z"/><path d="M15.809 13l-1.362 2.724a.5.5 0 0 1-.928-.086l-1.646-5.765-1.925 3.851c-.158.316-.632.4-.863.054l-1.608-2.412L6.4 12.8a.5.5 0 0 1-.4.2H3.575c.492 3.663 3.629 6.5 7.425 6.5s6.934-2.837 7.425-6.5h-2.616z"/></g><g><path fill="none" d="M0 0h24v24H0z"/></g></svg>