<svg xmlns="http://www.w3.org/2000/svg" width="24" height="24" viewBox="0 0 24 24"><path d="M11.5 5A6.508 6.508 0 0 0 5 11.5a6.496 6.496 0 0 0 4.5 6.181v.819a.5.5 0 0 0 .5.5h3a.5.5 0 0 0 .5-.5v-.819A6.499 6.499 0 0 0 18 11.5C18 7.916 15.084 5 11.5 5zM12 22h-1a.5.5 0 0 0 0 1h1a.5.5 0 0 0 0-1zM13 20h-3a.5.5 0 0 0 0 1h3a.5.5 0 0 0 0-1zM11.5 4a.5.5 0 0 0 .5-.5v-2a.5.5 0 0 0-1 0v2a.5.5 0 0 0 .5.5zM21.5 11h-2a.5.5 0 0 0 0 1h2a.5.5 0 0 0 0-1zM3.5 11h-2a.5.5 0 0 0 0 1h2a.5.5 0 0 0 0-1zM5.488 6.199a.502.502 0 0 0 .707 0 .5.5 0 0 0 0-.707L4.074 3.369a.499.499 0 0 0-.707 0 .502.502 0 0 0 0 .708l2.121 2.122zM17.155 6.345a.502.502 0 0 0 .354-.146l2.122-2.122a.502.502 0 0 0 0-.708.499.499 0 0 0-.707 0l-2.122 2.122a.5.5 0 0 0 .353.854z"/><g><path fill="none" d="M0 0h24v24H0z"/></g></svg>