<svg xmlns="http://www.w3.org/2000/svg" width="24" height="24" viewBox="0 0 24 24"><path d="M22 0H2C.896 0 0 .898 0 2v13c0 1.103.897 2 2 2h8v-2H2V2h20v13h-3v2h3c1.103 0 2-.897 2-2V2c0-1.102-.898-2-2-2z"/><path d="M11 23h7V12h-7v11zm4.5-8.5a.5.5 0 1 1-.002 1.002.5.5 0 0 1 .002-1.002zm0 2a.5.5 0 1 1-.002 1.002.5.5 0 0 1 .002-1.002zm0 2a.5.5 0 1 1-.002 1.002.5.5 0 0 1 .002-1.002zm-2-4a.5.5 0 1 1-.002 1.002.5.5 0 0 1 .002-1.002zm0 2a.5.5 0 1 1-.002 1.002.5.5 0 0 1 .002-1.002zm0 2a.5.5 0 1 1-.002 1.002.5.5 0 0 1 .002-1.002zM18.154 6.537a6.996 6.996 0 0 0-7.053-.152.5.5 0 1 0 .487.874 5.994 5.994 0 0 1 6.043.13.502.502 0 0 0 .688-.164.502.502 0 0 0-.165-.688z"/><path d="M17.275 8.928a.501.501 0 0 0-.165-.688 5.003 5.003 0 0 0-5.038-.108.5.5 0 0 0 .486.874 4.002 4.002 0 0 1 4.03.087.502.502 0 0 0 .687-.165zM13.047 9.887a.501.501 0 0 0 .486.875 1.992 1.992 0 0 1 2.008.039.5.5 0 0 0 .523-.854 2.998 2.998 0 0 0-3.017-.06z"/><g><path fill="none" d="M0 0h24v24H0z"/></g></svg>