<svg xmlns="http://www.w3.org/2000/svg" width="24" height="24" viewBox="0 0 24 24"><path d="M22.83 9.617C21.616 7.688 16.392 7 11.907 7 7.423 7 2.198 7.688.984 9.617l-.082.129.005.152c.03.972.261 5.86 1.88 6.67 1.69.846 5.277.855 5.43.855 1.047 0 1.496-1.029 1.932-2.023.532-1.219.948-2.017 1.852-2.017s1.319.798 1.852 2.017c.436.994.885 2.023 1.932 2.023.144 0 3.554-.01 5.244-.855 1.619-.81 1.85-5.698 1.88-6.67l.005-.152-.084-.129zm-16.791.75c-1.057.239-1.481.514-1.646.672.017.308.062.96.171 1.597a.5.5 0 0 1-.986.169 15.618 15.618 0 0 1-.192-1.918l-.005-.152.082-.129c.337-.535 1.107-.932 2.355-1.214a.499.499 0 1 1 .221.975zm14.39.521c-.002.039-.032.975-.192 1.917a.501.501 0 0 1-.986-.168c.109-.64.154-1.29.171-1.598-.165-.158-.589-.433-1.646-.672a.5.5 0 1 1 .221-.976c1.248.282 2.019.68 2.356 1.214l.082.129-.006.154z"/><path fill="none" d="M0 0h24v24H0z"/></svg>