<svg xmlns="http://www.w3.org/2000/svg" width="24" height="24" viewBox="0 0 24 24"><path d="M17.5 20h-11c-.01 0-.019-.003-.028-.003L6.807 21h10.387l.334-1.003c-.009 0-.018.003-.028.003zM7 22v1.5a.5.5 0 0 0 .5.5h9a.5.5 0 0 0 .5-.5V22H7zM17 2V.5a.5.5 0 0 0-.5-.5h-9a.5.5 0 0 0-.5.5V2h10zM6.807 3l-.335 1.003C6.481 4.003 6.49 4 6.5 4h11c.01 0 .019.003.028.003L17.193 3H6.807zM17.5 5h-11A2.503 2.503 0 0 0 4 7.5v9C4 17.879 5.122 19 6.5 19h11c1.378 0 2.5-1.121 2.5-2.5v-9C20 6.121 18.878 5 17.5 5z"/><g><path fill="none" d="M0 0h24v24H0z"/></g></svg>