<svg xmlns="http://www.w3.org/2000/svg" width="24" height="24" viewBox="0 0 24 24"><path d="M11.5 8c-1.104 0-2 .898-2 2a.5.5 0 0 0 1 0 1 1 0 0 1 1-1 .5.5 0 0 0 0-1z"/><path d="M23.854 23.146l-4.848-4.848c2.139-1.924 3.494-4.702 3.494-7.799C22.5 4.71 17.789 0 12 0 6.21 0 1.5 4.71 1.5 10.5c0 3.097 1.355 5.875 3.494 7.799L.146 23.147a.5.5 0 0 0 .707.707l4.919-4.919A10.438 10.438 0 0 0 12 21c2.332 0 4.482-.774 6.227-2.065v-.001l4.919 4.92a.5.5 0 0 0 .708-.708zM12 3a1.001 1.001 0 0 1 0 2 1 1 0 0 1 0-2zm-4.5 7.5C7.5 8.019 9.519 6 12 6s4.5 2.019 4.5 4.5S14.481 15 12 15s-4.5-2.019-4.5-4.5z"/><g><path fill="none" d="M0 0h24v24H0z"/></g></svg>