<svg xmlns="http://www.w3.org/2000/svg" width="24" height="24" viewBox="0 0 24 24"><path d="M5.836 8.693A6.954 6.954 0 0 0 5 12.006c0 .377.038.744.096 1.105a6.003 6.003 0 0 1 4.889 5.596 6.952 6.952 0 0 0 4.03 0 6.003 6.003 0 0 1 4.89-5.596A7.06 7.06 0 0 0 19 12.006a6.954 6.954 0 0 0-.836-3.313 28.436 28.436 0 0 0-12.328 0zM14 12.006c0 1.102-.898 2-2 2-1.103 0-2-.898-2-2 0-1.103.897-2 2-2 1.102 0 2 .897 2 2z"/><path d="M12 .006c-6.617 0-12 5.383-12 12s5.383 12 12 12c6.616 0 12-5.383 12-12s-5.384-12-12-12zm0 20c-4.411 0-8-3.589-8-8s3.589-8 8-8 8 3.589 8 8-3.589 8-8 8z"/><g><path fill="none" d="M0 0h24v24H0z"/></g></svg>