<svg width="45" height="28" viewBox="0 0 45 28" xmlns="http://www.w3.org/2000/svg"><title>8FBBF476-7D46-48B0-AC8D-AA4532A5DA2C</title><path d="M37.963 28h-9.257a4.856 4.856 0 0 1-4.362-2.682 2.052 2.052 0 0 0-1.845-1.136 2.05 2.05 0 0 0-1.845 1.136A4.85 4.85 0 0 1 16.294 28H7.027a6.994 6.994 0 0 1-4.965-2.055A6.925 6.925 0 0 1 0 21.005V7.002C0 3.14 3.158 0 7.037 0h30.928a7 7 0 0 1 4.97 2.056A6.933 6.933 0 0 1 45 7.004v13.993C44.999 24.86 41.842 28 37.963 28zM12.026 17.889a4.277 4.277 0 0 0 4.267-4.278 4.277 4.277 0 0 0-4.267-4.278 4.277 4.277 0 0 0-4.267 4.278 4.277 4.277 0 0 0 4.267 4.278zm20.172 0a4.277 4.277 0 0 0 4.268-4.278 4.277 4.277 0 0 0-4.268-4.278 4.277 4.277 0 0 0-4.267 4.278 4.277 4.277 0 0 0 4.267 4.278z"/></svg>