<svg width="45" height="39" viewBox="0 0 45 39" xmlns="http://www.w3.org/2000/svg"><title>30121271-1E01-4B90-BD30-4E942C7353C9</title><g><path d="M26.835 11.558a4.362 4.362 0 1 0 8.708-.512 4.364 4.364 0 0 0-4.61-4.105 4.366 4.366 0 0 0-4.098 4.617z"/><path d="M1.23 15.75c.014 0 1.452.09 2.51 1.522 1.222 1.653 3.77 5.094 7.911 4.431 1.816-.288 3.37-1.778 4.877-3.217 1.556-1.49 3.168-3.037 4.686-2.886 1.173.113 2.116 1.134 3.206 2.317 1.598 1.73 3.578 3.877 7.11 3.877.078 0 .156 0 .235-.002 3.294-.087 5.275-2.005 7.022-3.698 1.553-1.504 2.768-2.69 4.68-2.635.694.035 1.29-.533 1.311-1.238a1.272 1.272 0 0 0-1.235-1.311c-2.976-.093-4.863 1.738-6.527 3.35-1.551 1.501-3.016 2.92-5.32 2.98-1.468.04-2.553-.457-3.495-1.192l-2.242-3.876c-.028-.177-.025-.375-.127-.53-.38-.59-.64-1.204-1.167-1.583l-2.997-5.472 8.605-3.047a1.82 1.82 0 0 0 1.109-2.325A1.818 1.818 0 0 0 29.06.105L18.436 3.864a1.822 1.822 0 0 0-.99 2.595l3.061 5.59-13.963 4.685a24.7 24.7 0 0 1-.756-.98c-1.799-2.43-4.36-2.55-4.468-2.553a1.275 1.275 0 1 0-.09 2.549z"/><path d="M37.008 24.155c-1.551 1.502-3.015 2.92-5.32 2.98-2.514.066-3.925-1.448-5.405-3.055-1.324-1.435-2.694-2.92-4.834-3.125-2.682-.258-4.811 1.782-6.691 3.58-1.223 1.17-2.487 2.38-3.517 2.544-2.414.382-4.023-1.484-5.462-3.43-1.798-2.431-4.36-2.55-4.469-2.554A1.27 1.27 0 0 0 .001 22.31a1.283 1.283 0 0 0 1.203 1.335c.06.004 1.48.107 2.527 1.523 1.223 1.654 3.77 5.095 7.911 4.432 1.814-.29 3.37-1.779 4.876-3.218 1.557-1.491 3.173-3.04 4.688-2.886 1.172.113 2.113 1.134 3.204 2.316 1.598 1.732 3.577 3.878 7.11 3.878.078 0 .156 0 .233-.003 3.296-.087 5.277-2.004 7.025-3.696 1.518-1.47 2.723-2.638 4.552-2.638.043 0 .086 0 .13.002.69.034 1.289-.534 1.309-1.238a1.275 1.275 0 0 0-1.236-1.312c-2.958-.097-4.86 1.74-6.525 3.35z"/><path d="M43.543 29.47c-2.975-.088-4.862 1.739-6.526 3.35-1.552 1.503-3.017 2.92-5.32 2.981-2.534.06-3.924-1.45-5.405-3.055-1.324-1.437-2.693-2.92-4.834-3.125-2.682-.257-4.811 1.781-6.691 3.58-1.223 1.17-2.487 2.38-3.516 2.543-2.417.383-4.023-1.484-5.463-3.43-1.798-2.43-4.36-2.55-4.468-2.553a1.275 1.275 0 1 0-.09 2.55c.013 0 1.45.09 2.51 1.522 1.221 1.652 3.769 5.093 7.91 4.43 1.816-.288 3.371-1.777 4.877-3.217 1.556-1.49 3.169-3.038 4.686-2.886 1.173.113 2.116 1.135 3.206 2.317 1.599 1.733 3.578 3.878 7.11 3.878.078 0 .156 0 .235-.003 3.294-.087 5.275-2.005 7.022-3.697 1.553-1.504 2.768-2.681 4.681-2.635.693.036 1.29-.534 1.31-1.238a1.27 1.27 0 0 0-1.234-1.312z"/></g></svg>