<svg width="45" height="45" viewBox="0 0 45 45" xmlns="http://www.w3.org/2000/svg"><title>DDC8DA60-3ABE-4B3C-AB55-403FF2DC357B</title><path d="M28.993 11.25H16.026a27.002 27.002 0 0 0-1.954 9.375h16.875a27.088 27.088 0 0 0-1.954-9.375zM12.294 22.5H.024c.066 3.352.842 6.52 2.172 9.375H14.02c-1.044-3.148-1.62-6.285-1.727-9.375zm10.214 21.23l.189-.25c2.422-3.231 4.282-6.486 5.642-9.73H16.676c1.362 3.244 3.222 6.502 5.646 9.735l.186.246zm8.43-21.23H14.08c.117 3.08.728 6.214 1.855 9.375h13.143c1.13-3.161 1.742-6.294 1.858-9.375zm-.016-11.25a29.253 29.253 0 0 1 1.812 9.375h12.174a22.17 22.17 0 0 0-2.927-9.375H30.922zm-28.143 0C1.223 14.038.276 17.212.068 20.625h12.215c.088-3.21.694-6.35 1.813-9.375H2.78zm28.215 20.625h11.904a22.44 22.44 0 0 0 2.098-9.375H32.722c-.106 3.09-.682 6.227-1.728 9.375zM20.822 44.61c-2.68-3.574-4.704-7.215-6.13-10.86H3.175c3.698 6.341 10.28 10.704 17.888 11.179l-.24-.319zm9.501-10.86c-1.424 3.641-3.449 7.282-6.126 10.853l-.24.322c7.672-.516 14.295-4.871 17.968-11.173H30.323v-.002zM14.863 9.375c1.427-3.182 3.413-6.227 6.02-9.053l.245-.266C13.875.472 7.725 4.02 3.96 9.375h10.903zM24.135.323c2.608 2.825 4.594 5.87 6.02 9.052h10.61C36.933 4.065 30.844.501 23.901.073l.233.25zM22.51 1.324l-.25.27c-2.27 2.462-4.043 5.07-5.374 7.781h11.247c-1.33-2.711-3.104-5.32-5.374-7.78l-.25-.271z" /></svg>