<svg width="48" height="47" viewBox="0 0 48 47" xmlns="http://www.w3.org/2000/svg"><title>855E3D9B-BEF5-4577-BC2F-C786B6D6CF03</title><g><path d="M1.587 9.463l20.966 10.055 9.582-3.943L12.22 4.842zM5.883 19.614a.981.981 0 0 1 1.387-.892l9.806 4.9a.98.98 0 0 1 .574.892v9.8a.981.981 0 0 1-1.386.892l-9.806-4.9a.975.975 0 0 1-.575-.892v-9.8zM0 36.274c0 .39.231.743.59.897l20.982 9.548V21.223L0 10.893v25.38zM23.534 21.223v25.496l22.943-9.548a.975.975 0 0 0 .59-.897v-25.38L23.534 21.223zM45.48 9.463L23.925.096a.966.966 0 0 0-.78 0l-8.636 3.75 19.86 10.705 11.113-5.088z"/></g></svg>