<svg width="45" height="45" viewBox="0 0 45 45" xmlns="http://www.w3.org/2000/svg"><title>CA4556AD-FB0B-49DB-8BA7-EB77DAC20D71</title><g><path d="M10.313 44.981a.938.938 0 0 1-.938-.937V.949a.938.938 0 0 1 1.875 0v43.095c0 .52-.42.937-.938.937M6.563 15.919a.937.937 0 0 1-.582-.203C.68 11.511 0 6.1 0 1.856a.937.937 0 0 1 1.601-.662L7.226 6.82a.937.937 0 0 1 .274.662v7.5a.936.936 0 0 1-.938.938M6.563 30.011a.937.937 0 0 1-.582-.202C.68 25.6 0 20.192 0 15.949a.937.937 0 0 1 1.601-.664l5.625 5.625a.944.944 0 0 1 .274.664v7.5a.936.936 0 0 1-.938.937M6.563 44.102a.937.937 0 0 1-.582-.203C.68 39.694 0 34.282 0 30.04a.937.937 0 0 1 1.601-.663L7.226 35a.95.95 0 0 1 .274.663v7.5a.936.936 0 0 1-.938.938M14.063 15.919a.934.934 0 0 1-.938-.938v-7.5c0-.25.1-.487.276-.663l5.625-5.625a.939.939 0 0 1 1.6.664c-.001 4.242-.68 9.652-5.98 13.86a.946.946 0 0 1-.584.202M14.063 30.011a.936.936 0 0 1-.938-.938v-7.5c0-.249.1-.487.276-.663l5.625-5.625a.936.936 0 0 1 1.599.664c0 4.243-.679 9.652-5.98 13.86a.946.946 0 0 1-.582.202M14.063 44.102a.932.932 0 0 1-.938-.938v-7.5c0-.249.1-.487.276-.663l5.625-5.625a.933.933 0 0 1 1.021-.203.94.94 0 0 1 .578.866c0 4.243-.679 9.653-5.98 13.86a.946.946 0 0 1-.582.203M34.688 44.981a.938.938 0 0 1-.938-.937V.949a.938.938 0 0 1 1.875 0v43.095c0 .52-.42.937-.938.937M30.938 15.919a.937.937 0 0 1-.582-.203c-5.302-4.205-5.981-9.617-5.981-13.86a.937.937 0 0 1 1.601-.664l5.625 5.625a.944.944 0 0 1 .274.664v7.5a.936.936 0 0 1-.938.938M30.938 30.011a.937.937 0 0 1-.582-.202c-5.302-4.208-5.981-9.617-5.981-13.86a.937.937 0 0 1 1.601-.664l5.625 5.625a.944.944 0 0 1 .274.664v7.5a.936.936 0 0 1-.938.937M30.938 44.102a.937.937 0 0 1-.582-.203c-5.302-4.205-5.981-9.617-5.981-13.86a.937.937 0 0 1 1.601-.663L31.601 35a.95.95 0 0 1 .274.663v7.5a.936.936 0 0 1-.938.938M38.438 15.919a.934.934 0 0 1-.938-.938v-7.5c0-.25.1-.487.274-.663l5.625-5.625A.937.937 0 1 1 45 1.857c0 4.242-.679 9.652-5.981 13.86a.937.937 0 0 1-.581.202M38.438 30.011a.936.936 0 0 1-.938-.938v-7.5c0-.249.1-.487.274-.663l5.625-5.625a.937.937 0 0 1 1.601.664c0 4.243-.679 9.652-5.981 13.86a.937.937 0 0 1-.581.202M38.438 44.102a.932.932 0 0 1-.938-.938v-7.5c0-.249.1-.487.274-.663l5.625-5.625A.94.94 0 0 1 45 30.04c0 4.242-.679 9.652-5.981 13.86a.937.937 0 0 1-.581.202"/></g></svg>