<svg width="48" height="48" viewBox="0 0 48 48" xmlns="http://www.w3.org/2000/svg" xmlns:xlink="http://www.w3.org/1999/xlink"><title>5B6F8468-78B9-4599-842A-C7F4E87A2DF0</title><defs><path id="a" d="M9.806 10.36V.56H0v9.8h9.806z"/></defs><g><path  d="M26.472 37.817l9.401-9.396 6.29 6.286-9.402 9.396z"/><g transform="translate(37.262 22.96)"><mask id="b" fill="#fff"><use xlink:href="#a"/></mask><path d="M9.52 5.746L4.616.846a.982.982 0 0 0-1.387 0L0 4.074l6.29 6.286 3.23-3.226a.983.983 0 0 0 0-1.388" mask="url(#b)"/></g><path d="M31.076 45.211l-5.72-5.717-1.787 6.323a.961.961 0 0 0 .237.949.974.974 0 0 0 .947.239l6.323-1.794zM2.942 37.24a.98.98 0 1 0-.003 1.959.98.98 0 0 0 .003-1.959M6.864 37.24a.98.98 0 1 0-.002 1.959.98.98 0 0 0 .002-1.959M30.398 17.64a1.961 1.961 0 0 1-1.962-1.96 1.961 1.961 0 0 1 3.923 0c0 1.082-.879 1.96-1.961 1.96zm-5.884 0a1.961 1.961 0 0 1-1.961-1.96 1.961 1.961 0 0 1 3.922 0c0 1.082-.878 1.96-1.96 1.96zm-5.883 0a1.961 1.961 0 0 1-1.961-1.96 1.961 1.961 0 0 1 3.922 0c0 1.082-.879 1.96-1.961 1.96zm-11.767.98a2.944 2.944 0 0 1-2.942-2.94c0-1.62 1.32-2.94 2.942-2.94a2.944 2.944 0 0 1 2.942 2.94c0 1.62-1.32 2.94-2.942 2.94zM0 19.6h37.262v-7.84H0v7.84zM6.864 4.9a.98.98 0 1 1 0 1.961.98.98 0 0 1 0-1.961"/><path d="M6.864 2.94a2.944 2.944 0 0 1 2.942 2.94c0 1.62-1.32 2.94-2.942 2.94a2.944 2.944 0 0 1-2.942-2.94c0-1.62 1.32-2.94 2.942-2.94zm11.767.98c1.082 0 1.96.878 1.96 1.96a1.961 1.961 0 0 1-3.921 0c0-1.082.878-1.96 1.96-1.96zm5.883 0c1.083 0 1.961.878 1.961 1.96a1.961 1.961 0 0 1-3.922 0c0-1.082.879-1.96 1.961-1.96zm5.884 0c1.082 0 1.96.878 1.96 1.96a1.961 1.961 0 0 1-3.922 0c0-1.082.879-1.96 1.962-1.96zm6.864 5.88V.98A.98.98 0 0 0 36.28 0H.981A.98.98 0 0 0 0 .98V9.8h37.262zM6.864 24.5a.98.98 0 1 1 0 1.961.98.98 0 0 1 0-1.961M6.864 14.7a.98.98 0 1 1 0 1.961.98.98 0 0 1 0-1.961"/><path d="M16.67 25.48a1.961 1.961 0 0 1 3.922 0 1.961 1.961 0 0 1-3.922 0m-9.806 2.94a2.944 2.944 0 0 1-2.942-2.94c0-1.62 1.32-2.94 2.942-2.94a2.944 2.944 0 0 1 2.942 2.94c0 1.62-1.32 2.94-2.942 2.94m17.65-4.9c1.083 0 1.961.878 1.961 1.96a1.961 1.961 0 0 1-3.922 0c0-1.082.879-1.96 1.961-1.96m5.884 0c1.082 0 1.96.878 1.96 1.96a1.961 1.961 0 0 1-3.922 0c0-1.082.879-1.96 1.962-1.96m-6.864 14.7a.98.98 0 0 0-.981-.98h-2.942v-5.88h10.55l7.1-7.097V21.56H0v8.82c0 .541.44.98.98.98h16.67v5.88h-6.864a.98.98 0 0 0 0 1.96h11.767a.98.98 0 0 0 .98-.98"/></g></svg>