<svg width="48" height="44" viewBox="0 0 48 44" xmlns="http://www.w3.org/2000/svg"><title>A2E42DDB-86D9-4A0B-BAD9-8AA733A0E904</title><g><path d="M19.611 7.84a1.963 1.963 0 0 1-1.96-1.96c0-1.08.878-1.96 1.96-1.96 1.083 0 1.961.88 1.961 1.96s-.878 1.96-1.96 1.96m-5.884 0a1.963 1.963 0 0 1-1.961-1.96c0-1.08.878-1.96 1.96-1.96 1.083 0 1.962.88 1.962 1.96s-.879 1.96-1.961 1.96m-5.883 0a1.963 1.963 0 0 1-1.962-1.96 1.963 1.963 0 0 1 3.922 0c0 1.08-.878 1.96-1.96 1.96M42.165 0H4.902A4.906 4.906 0 0 0 0 4.9v4.9h47.067V4.9c0-2.703-2.198-4.9-4.903-4.9M24.514 29.4H16.67a.98.98 0 0 1 0-1.96h7.844a.98.98 0 0 1 0 1.96M10.786 17.64h-1.96a.98.98 0 0 1 0-1.96h1.96a.98.98 0 0 1 0 1.96m0 5.88h-1.96a.98.98 0 0 1 0-1.96h1.96a.98.98 0 0 1 0 1.96m0 5.88h-1.96a.98.98 0 0 1 0-1.96h1.96a.98.98 0 0 1 0 1.96m5.884-7.84h7.844a.98.98 0 0 1 0 1.96H16.67a.98.98 0 0 1 0-1.96m0-5.88H36.28a.98.98 0 0 1 0 1.96H16.67a.98.98 0 0 1 0-1.96m13.714 16.927a8.273 8.273 0 0 1-1.457-4.677c0-4.594 3.738-8.33 8.335-8.33 4.596 0 8.334 3.736 8.334 8.33 0 1.68-.521 3.308-1.457 4.677 1.165.835 2.15 1.87 2.928 3.041V11.76H0v20.58c0 2.703 2.198 4.9 4.903 4.9h21.68a11.7 11.7 0 0 1 3.8-4.633"/><path d="M40.98 33.083c1.6-1.16 2.655-3.03 2.655-5.153 0-3.512-2.86-6.37-6.373-6.37-3.515 0-6.374 2.858-6.374 6.37 0 2.123 1.055 3.993 2.655 5.153-3.565 1.466-6.087 4.968-6.087 9.057 0 .541.44.98.98.98h17.65a.98.98 0 0 0 .981-.98c0-4.089-2.522-7.591-6.087-9.057"/></g></svg>