<svg width="45" height="45" viewBox="0 0 45 45" xmlns="http://www.w3.org/2000/svg"><title>0A2756CB-3535-460C-8EA7-B91BF36B60A3</title><g><path d="M41.248 35.627V16.875h-9.377l.002 18.75c0 .517.42.938.938.938h.939v2.812c0 .517.42.938.938.938h.937v3.75a.938.938 0 0 0 1.875 0v-3.75h.938c.517 0 .937-.42.937-.938v-2.813h.938a.94.94 0 0 0 .935-.935"/><path d="M44.996 6.563a4.693 4.693 0 0 0-3.748-4.59V.937A.938.938 0 0 0 40.311 0h-7.498a.938.938 0 0 0-.938.938L31.871 15h9.377V3.924a2.806 2.806 0 0 1 1.873 2.639l.004 15a.938.938 0 0 0 1.875 0l-.004-15zM16.875 39.375V30h9.375l-9.375 9.375zM15 23.437c0-.517.42-.937.938-.937H22.5a.938.938 0 0 1 0 1.875h-6.563a.938.938 0 0 1-.937-.938zm-1.213-13.4l-5.625 5.625a.938.938 0 0 1-1.326 0l-2.812-2.813a.938.938 0 0 1 1.325-1.325l2.151 2.15 4.963-4.963a.936.936 0 1 1 1.324 1.326zm0 10.314l-5.625 5.625a.936.936 0 0 1-1.326 0l-2.812-2.812a.938.938 0 0 1 1.325-1.326L7.5 23.987l4.963-4.963a.938.938 0 1 1 1.324 1.327zm2.15-7.226H22.5a.938.938 0 0 1 0 1.875h-6.563a.938.938 0 0 1 0-1.875zm11.25-9.375H.938A.938.938 0 0 0 0 4.688v35.624c0 .518.42.938.938.938h16.875c.249 0 .487-.1.663-.274l9.375-9.375a.94.94 0 0 0 .274-.663V4.688a.938.938 0 0 0-.938-.938z"/></g></svg>