<?xml version="1.0" encoding="utf-8"?>
<!-- Generator: Adobe Illustrator 21.0.2, SVG Export Plug-In . SVG Version: 6.00 Build 0)  -->
<svg version="1.1" id="Layer_1" xmlns="http://www.w3.org/2000/svg" xmlns:xlink="http://www.w3.org/1999/xlink" x="0px" y="0px"
	 viewBox="0 0 39 45" style="enable-background:new 0 0 39 45;" xml:space="preserve">
<style type="text/css">
	.st0{}
</style>
<path class="st0" d="M38.1,8.5c-0.1,0-13.6-3.8-18-8.2c-0.3-0.4-1-0.4-1.3,0c-4.4,4.5-17.9,8.2-18,8.2C0.3,8.6,0,9,0,9.4
	c0,16.1,1.4,28.9,19,35.5c0.1,0,0.2,0.1,0.3,0.1s0.2,0,0.3-0.1c17.6-6.6,19-19.5,19-35.5C38.7,9,38.5,8.6,38.1,8.5z M28,30.5
	c0,1.2-0.1,2.5-0.4,3.6c-0.2,0.9-1,1.6-1.9,1.6c-1,0-1.8-0.8-1.9-1.8c-0.4-3.5-2.3-6.1-4.4-6.1c-2.1,0-4,2.6-4.4,6
	c-0.1,1-1,1.8-2,1.8c-0.9,0-1.7-0.7-1.9-1.6c-0.2-1.2-0.4-2.4-0.4-3.7c0-2.1,0.4-4.2,1-6.1c-1.7-2-2.6-4.7-2.6-8
	c0-4.1,2.6-7.2,5.9-7.2c1.6,0,3.1,0.7,4.2,1.8c1.1-1.1,2.6-1.8,4.2-1.8c3.3,0,5.9,3.2,5.9,7.2c0,3.3-0.9,6-2.6,8
	C27.6,26.3,28,28.4,28,30.5z"/>
</svg>
