<svg width="75" height="85" xmlns="http://www.w3.org/2000/svg"><g><path d="M21.115 38.958H5.192l-2.235 21.25h16.784zM70.266 38.958H54.963l1.342 21.25h16.196zM54.322 85L52.98 63.75H23.06L21.689 85z"/><path d="M42.124 54.74a5.315 5.315 0 0 1-8.153 0 163.162 163.162 0 0 1-9.509-12.669l-1.169 18.137h29.463l-1.144-18.115a162.52 162.52 0 0 1-9.488 12.647zM19.51 63.75H2.583L.552 83.045c-.056.496.107.988.443 1.367.336.376.815.588 1.317.588H18.14l1.37-21.25zM61.38 19.79c0 4.403-2.44 10.095-5.602 15.627H69.89l-2.068-19.664a1.77 1.77 0 0 0-1.76-1.586h-5.398c.45 1.806.715 3.683.715 5.624zM56.528 63.75L57.871 85h15.275c.503 0 .98-.213 1.317-.588.333-.379.496-.871.447-1.367L72.877 63.75H56.528zM20.315 35.417c-3.166-5.532-5.607-11.22-5.607-15.626 0-1.941.262-3.818.716-5.624H9.396a1.77 1.77 0 0 0-1.76 1.586L5.564 35.417h14.75z"/><path d="M38.048 0C27.132 0 18.25 8.875 18.25 19.79c0 10.477 17.687 31.777 18.438 32.676a1.775 1.775 0 0 0 2.72 0c.75-.9 18.43-22.202 18.43-32.675C57.839 8.875 48.96 0 38.049 0zm0 28.326c-4.703 0-8.528-3.832-8.528-8.532s3.825-8.532 8.528-8.532 8.528 3.833 8.528 8.532c0 4.7-3.825 8.532-8.528 8.532z"/><path fill="none" d="M-5 0h85v85H-5z"/></g></svg>