<svg width="82" height="92" viewBox="0 0 82 92" xmlns="http://www.w3.org/2000/svg"><title>EB02AEEA-6C10-4C67-BD78-B561BFB16D73</title><g><path d="M64.152 82.388a1.92 1.92 0 1 1-.001 3.842 1.92 1.92 0 0 1 .001-3.842zm-17.28 3.84a5.767 5.767 0 0 0 5.76 5.76h23.04a5.767 5.767 0 0 0 5.76-5.76v-5.76h-34.56v5.76zM75.672 38.228h-23.04a5.767 5.767 0 0 0-5.76 5.76v32.64h34.56v-32.64a5.767 5.767 0 0 0-5.76-5.76M46.792 24.485l-14.57-10.902L36.6 7.735c.634-.849.461-2.05-.388-2.688a1.922 1.922 0 0 0-2.688.391l-4.377 5.845L14.582.38a1.924 1.924 0 0 0-2.688.388c-3.54 4.727-5.03 10.53-4.194 16.343a21.753 21.753 0 0 0 5.315 11.428L1.253 42.763c-1.03 1.24-.15 3.145 1.478 3.145h25.694c1.628 0 2.507-1.904 1.482-3.14l-6.294-7.616c1.913.542 3.89.876 5.922.876h.003c6.993 0 13.421-3.23 17.638-8.855a1.925 1.925 0 0 0-.384-2.688M46.872 15.188h23.04v19.2a1.92 1.92 0 0 0 3.84 0v-21.12c0-1.06-.86-1.92-1.92-1.92h-24.96a1.92 1.92 0 0 0 0 3.84M39.192 76.628h-23.04v-23.04a1.92 1.92 0 0 0-3.84 0v24.96c0 1.06.86 1.92 1.92 1.92h24.96a1.92 1.92 0 0 0 0-3.84"/></g></svg>