<svg width="85" height="85" viewBox="0 0 85 85" xmlns="http://www.w3.org/2000/svg"><title>CB301816-5101-4249-BC39-A5BB1A7A9765</title><g><path d="M54.645 21.828H30.44c-2.278 5.635-3.468 11.501-3.647 17.5h31.5c-.182-5.999-1.372-11.865-3.647-17.5M23.696 42.828H.792a43.356 43.356 0 0 0 4.053 17.5H26.92c-1.95-5.876-3.024-11.732-3.224-17.5M42.677 82.459l.354-.47c4.522-6.03 7.994-12.106 10.531-18.16h-21.77C34.333 69.882 37.805 75.965 42.331 82l.346.459zM58.257 42.828H26.792c.217 5.75 1.358 11.6 3.462 17.5h24.535c2.107-5.9 3.251-11.75 3.468-17.5M58.792 21.828a54.605 54.605 0 0 1 3.381 17.5H84.9a41.385 41.385 0 0 0-5.464-17.5H58.792zM5.853 21.828c-2.905 5.205-4.672 11.13-5.06 17.5h22.802a54.515 54.515 0 0 1 3.384-17.5H5.853zM58.792 60.328h22.222c2.47-5.334 3.892-11.245 3.916-17.5H62.02c-.2 5.768-1.275 11.624-3.228 17.5M39.734 84.1c-5.001-6.67-8.781-13.468-11.441-20.272h-21.5c6.901 11.837 19.186 19.982 33.39 20.867l-.449-.595zM57.675 63.828c-2.657 6.797-6.437 13.594-11.435 20.258l-.448.602c14.322-.962 26.684-9.093 33.54-20.856H57.676v-.004zM28.145 18.223c2.663-5.94 6.37-11.623 11.238-16.898l.455-.497C26.3 1.605 14.82 8.228 7.792 18.223h20.353zM46.226 1.294c4.869 5.274 8.575 10.958 11.239 16.898h19.803C70.118 8.28 58.753 1.626 45.792.828l.434.466zM43.289 3.828l-.466.504c-4.238 4.596-7.546 9.464-10.03 14.525h20.992c-2.481-5.06-5.792-9.93-10.03-14.521l-.466-.508z"/></g></svg>