<?xml version="1.0" encoding="utf-8"?>
<!-- Generator: Adobe Illustrator 21.0.2, SVG Export Plug-In . SVG Version: 6.00 Build 0)  -->
<svg version="1.1" id="Layer_1" xmlns="http://www.w3.org/2000/svg" xmlns:xlink="http://www.w3.org/1999/xlink" x="0px" y="0px"
	 viewBox="0 0 48 37" style="enable-background:new 0 0 48 37;" xml:space="preserve">
<g>
	<circle cx="36.6" cy="30.6" r="6"/>
	<circle cx="12.6" cy="30.6" r="6"/>
</g>
<path d="M47.3,4.5H21.6c-0.1,0-0.3-0.1-0.3-0.3V3.1c0-1.3-1-2.5-2.3-2.7c-1.5-0.2-2.8,1-2.8,2.5v1.3c0,0.2-0.1,0.3-0.3,0.3h-3.2
	c-0.2,0-0.4,0.1-0.6,0.2L0.7,16.6c-0.1,0.1-0.2,0.3-0.2,0.5v13.3c0,0.2,0.1,0.3,0.3,0.3h3.4c0.2,0,0.3-0.1,0.3-0.3
	c0-2,0.8-4.1,2.4-5.6c1.6-1.6,3.6-2.4,5.8-2.4s4.3,0.9,5.8,2.4c1.6,1.6,2.4,3.6,2.4,5.6c0,0.2,0.1,0.3,0.3,0.3h7
	c0.2,0,0.3-0.1,0.3-0.3c0-2,0.8-4.1,2.4-5.6c1.6-1.6,3.6-2.4,5.8-2.4s4.3,0.9,5.8,2.4c1.6,1.6,2.4,3.6,2.4,5.6
	c0,0.2,0.1,0.3,0.3,0.3h2.1c0.2,0,0.3-0.1,0.3-0.3V4.8C47.6,4.6,47.5,4.5,47.3,4.5z M13.9,17.7c0,0.2-0.1,0.3-0.3,0.3H3
	c-0.2,0-0.4-0.3-0.2-0.5L13.4,6.9c0.2-0.2,0.5-0.1,0.5,0.2V17.7z M24.5,19.8c-3.3-3.2-3.3-8.5,0-11.7l0.8,0.8
	c-2.9,2.8-2.9,7.4,0,10.2L24.5,19.8z M26.1,18.3c-2.4-2.4-2.4-6.2,0-8.6l0.8,0.8c-2,2-2,5.1,0,7.1L26.1,18.3z M28.5,15.9l-0.8,0.8
	c-1.5-1.5-1.5-4,0-5.5l0.8,0.8C27.4,13.1,27.4,14.8,28.5,15.9z M30.5,15.1c-0.8,0-1.4-0.6-1.4-1.3c0-0.7,0.6-1.3,1.4-1.3
	s1.4,0.6,1.4,1.3C31.9,14.5,31.3,15.1,30.5,15.1z M32.5,15.9c1.1-1.1,1.1-2.8,0-3.9l0.8-0.8c1.5,1.5,1.5,4,0,5.5L32.5,15.9z
	 M34.1,17.5c2-1.9,2-5.1,0-7l0.8-0.8c2.4,2.4,2.4,6.2,0,8.6L34.1,17.5z M36.5,19.8L35.7,19c2.9-2.8,2.9-7.4,0-10.2l0.8-0.8
	C39.8,11.3,39.8,16.6,36.5,19.8z"/>
</svg>
