<svg xmlns="http://www.w3.org/2000/svg" width="24" height="24" viewBox="0 0 24 24"><path d="M23.646 4.522l-11.5-3.5a.515.515 0 0 0-.291 0l-11.5 3.5A.5.5 0 0 0 0 5.001v2.5A.5.5 0 0 0 .5 8H2v15.5a.5.5 0 1 0 1 0V8h18v15.5a.5.5 0 0 0 1 0V8h1.5a.5.5 0 0 0 .5-.5V5a.5.5 0 0 0-.354-.478z"/><path d="M15.5 9H13v2.5a.5.5 0 0 1-.5.5h-1a.5.5 0 0 1-.5-.5V9H8.5a.5.5 0 0 0-.5.5v6a.5.5 0 0 0 .5.5h7a.5.5 0 0 0 .5-.5v-6a.5.5 0 0 0-.5-.5zM11.5 17H9v2.5a.5.5 0 0 1-.5.5h-1a.5.5 0 0 1-.5-.5V17H4.5a.5.5 0 0 0-.5.5v6a.5.5 0 0 0 .5.5h7a.5.5 0 0 0 .5-.5v-6a.5.5 0 0 0-.5-.5zM19.5 17H18v2.5a.5.5 0 0 1-.5.5h-2a.5.5 0 0 1-.5-.5V17h-1.5a.5.5 0 0 0-.5.5v6a.5.5 0 0 0 .5.5h6a.5.5 0 0 0 .5-.5v-6a.5.5 0 0 0-.5-.5z"/><g><path fill="none" d="M0 0h24v24H0z"/></g></svg>