<svg width="90" height="88" viewBox="0 0 90 88" xmlns="http://www.w3.org/2000/svg"><title>Group 2</title><g><g><path d="M23.595 76.133s-3.657 0-6.948 2.194c-.898.598-1.699 1.39-2.394 2.222V57.067H8.402v25.647l-5.016-4.388 3.387 6.473L0 81.983c4.56 2.925 2.021 5.631 2.021 5.631h17.918l3.657-5.739c-2.925.62-6.948 2.302-6.948 2.302-.001-1.829 6.947-8.044 6.947-8.044zM90 81.983L83.225 84.8l3.388-6.473-5.486 4.799V57.067h-5.851v22.945c-.581-.63-1.222-1.217-1.924-1.686-3.29-2.194-6.947-2.194-6.947-2.194s6.947 6.215 6.947 8.044c0 0-4.021-1.682-6.947-2.302l3.657 5.739h17.917c-.001.001-2.54-2.705 2.021-5.63zM0 .386h89.53v53.32H0z"/></g><g fill="#FFF"><g transform="translate(24 6)"><path d="M9.625 14H.875a.875.875 0 0 0-.875.875v5.25c0 1.895.588 3.027 1.75 3.381v7.119c0 .483.392.875.875.875h5.25a.875.875 0 0 0 .875-.875v-7.119c1.16-.354 1.748-1.486 1.75-3.381v-5.25A.875.875 0 0 0 9.625 14z"/><circle cx="5.25" cy="8.75" r="3.5"/><path d="M41.125 14h-8.75a.875.875 0 0 0-.875.875v5.25c0 1.895.588 3.027 1.75 3.381v7.119c0 .483.392.875.875.875h5.25a.875.875 0 0 0 .875-.875v-7.119c1.16-.354 1.748-1.486 1.75-3.381v-5.25a.875.875 0 0 0-.875-.875z"/><circle cx="36.75" cy="8.75" r="3.5"/><path d="M25.375 8.75h-8.75a.875.875 0 0 0-.875.875v5.25c0 1.895.588 3.027 1.75 3.381v7.119c0 .483.392.875.875.875h5.25a.875.875 0 0 0 .875-.875v-7.119c1.16-.354 1.748-1.486 1.75-3.381v-5.25a.875.875 0 0 0-.875-.875z"/><circle cx="21" cy="3.5" r="3.5"/></g><path d="M65.125 39.25H53.75v-4.375a.875.875 0 0 0-.875-.875h-15.75a.875.875 0 0 0-.875.875v4.375H24.875a.875.875 0 0 0-.875.875v7c0 .483.392.875.875.875h40.25a.875.875 0 0 0 .875-.875v-7a.875.875 0 0 0-.875-.875z"/></g></g></svg>