<svg xmlns="http://www.w3.org/2000/svg" width="24" height="24" viewBox="0 0 24 24"><path d="M4.999 14h3v2h-3zM5.999 17h1v2h-1zM22.75 14.5h-1c1 0 .969-2 0-2h-2c1.672 0 1.656-2 0-2.5h-6c-2.762.5-4.25 1-4.25 1H8v2h.5a.5.5 0 0 1 .5.5v3a.5.5 0 0 1-.5.5H8v2h1.5s2.25 2 4.25 2h3c.828 0 1.75-1.171 1.75-2v-.5h3.25c1.688 0 1.688-2 0-2h1c.937 0 .921-2 0-2z"/><path d="M4.999 17h-.5A.5.5 0 0 1 4 16.5v-3a.5.5 0 0 1 .5-.5H5v-2H0v8h5v-2zM5.999 11h1v2h-1z"/><g><path d="M11.437 4.466c-2.636-1.758-6.239-1.758-8.875 0a.5.5 0 1 1-.554-.832c2.965-1.979 7.02-1.979 9.984 0a.5.5 0 1 1-.555.832z"/></g><g><path d="M10.327 6.13c-1.974-1.317-4.679-1.318-6.654 0a.5.5 0 1 1-.556-.832c2.305-1.539 5.461-1.539 7.766 0a.5.5 0 1 1-.556.832z"/></g><g><path d="M9.22 7.794c-1.321-.879-3.121-.879-4.439 0a.5.5 0 1 1-.555-.832c1.647-1.1 3.897-1.1 5.547 0a.5.5 0 0 1-.553.832z"/></g><g><path fill="none" d="M0 0h24v24H0z"/></g></svg>